<svg width="286" height="290" viewBox="0 0 286 290" fill="none" xmlns="http://www.w3.org/2000/svg">
<path d="M239.156 54.2133C235.635 57.0929 235.011 62.3506 237.38 66.7755C232.431 71.8117 226.483 77.2283 219.445 82.5885C215.525 85.5628 211.658 88.2289 207.936 90.6021C207.393 89.9397 206.835 89.2786 206.268 88.6254C203.508 85.4476 200.567 82.5222 197.493 79.8308C198.032 77.0579 198.933 73.8528 200.452 70.4566C203.066 64.5576 206.555 60.2387 209.558 57.2597C214.27 59.5307 219.691 58.5244 222.326 54.6239C225.3 50.2276 223.635 43.8287 218.59 40.3437C213.554 36.8498 207.065 37.567 204.091 41.9633C201.388 45.9703 202.531 51.639 206.571 55.2581C205.192 59.2965 202.571 64.6522 197.552 69.2379C195.082 71.5028 192.561 73.0825 190.373 74.1965C185.112 70.4434 179.53 67.3169 173.716 64.8461C174.152 60.8853 174.884 56.4529 176.128 51.7068C177.921 44.8262 180.31 38.9441 182.709 34.1259C187.698 34.9278 192.442 32.5149 193.907 28.1155C195.594 23.0673 192.289 17.3065 186.546 15.2498C180.804 13.194 174.774 15.6376 173.092 20.6914C171.63 25.0764 173.926 30.0068 178.324 32.5628C177.322 37.9204 175.705 44.0635 173.041 50.6046C171.239 55.0587 169.23 58.999 167.255 62.386C161.553 60.45 155.697 59.1117 149.782 58.387C147.207 53.0791 144.799 46.3599 143.758 38.4293C142.801 31.0006 143.286 24.5502 144.137 19.5727C149.179 18.8121 152.992 14.9395 152.962 10.2018C152.939 4.82631 148.016 0.375196 141.951 0.271216C135.898 0.14389 131.009 4.39984 131.042 9.76836C131.072 14.5061 134.889 18.5331 139.961 19.486C140.855 24.3699 141.445 30.8771 140.518 38.3679C139.495 46.6333 136.988 53.2273 134.709 57.8331C127.864 58.1779 121.074 59.3227 114.474 61.2954C113.462 58.7468 112.668 55.9878 112.186 53.0167C111.814 50.6522 111.676 48.4086 111.694 46.3275C116.607 44.6989 119.713 40.1042 118.794 35.3755C117.784 30.0807 112.137 26.6033 106.191 27.6139C100.244 28.6236 96.2504 33.7266 97.2663 39.0279C98.1665 43.6796 102.641 46.9315 107.746 46.963C108.562 49.1202 109.303 51.4493 109.927 53.938C110.657 56.7899 111.17 59.5569 111.5 62.2419C110.844 62.4647 110.205 62.6871 109.567 62.9305C102.044 65.6667 94.8395 69.5254 88.1642 74.51C84.6619 72.5613 81.0292 70.1859 77.3923 67.2707C69.9784 61.3159 64.876 54.9608 61.459 49.8274C64.519 45.8994 64.7005 40.5383 61.6132 36.9834C58.0554 32.8866 51.5097 32.7454 46.9898 36.6706C42.4608 40.6038 41.6741 47.1128 45.2319 51.2095C48.372 54.8253 53.842 55.3508 58.1927 52.7247C62.9673 56.5626 69.0386 62.4653 74.192 70.9447C76.449 74.6872 78.191 78.3715 79.5521 81.894C73.8362 87.4669 69.0891 93.6758 65.293 100.334C63.4607 99.7554 61.648 99.0513 59.7059 98.0508C55.8659 96.0638 52.8766 93.6729 50.6114 91.4888C52.5076 86.5344 50.8896 81.0008 46.6092 78.5805C41.8979 75.9221 35.7512 78.0478 32.8776 83.334C30.0131 88.6121 31.5039 95.0505 36.2252 97.7019C40.2955 99.9911 45.4217 98.7189 48.592 94.9365C51.6369 96.2662 54.9369 97.9818 58.3173 100.251C60.1201 101.442 61.7741 102.701 63.3257 103.99C60.1156 110.308 57.7473 116.969 56.202 123.822C52.5084 124.106 48.5276 124.17 44.2857 123.878C34.5214 123.203 26.3848 120.88 20.3701 118.584C20.4089 113.501 17.2774 108.991 12.6843 108C7.42472 106.868 2.2421 110.768 1.10698 116.709C-0.0182031 122.644 3.32586 128.376 8.57547 129.515C13.232 130.505 17.8046 127.581 19.5956 122.782C25.5398 122.95 34.0021 124.007 43.3086 128.01C47.5697 129.836 51.2896 131.98 54.5194 134.187C54.3953 135.427 54.2799 136.696 54.2033 137.954C53.8472 144.276 54.1574 150.665 55.1675 156.992C53.2748 157.856 51.2461 158.674 49.0761 159.403C42.0187 161.771 35.6181 162.535 30.628 162.691C28.6533 157.909 23.9688 154.968 19.3774 155.915C14.1696 156.983 11.0433 162.679 12.4011 168.632C13.7481 174.591 19.0742 178.547 24.2995 177.463C28.8801 176.522 31.8459 172.006 31.5766 166.882C36.2101 165.061 42.3791 163.238 49.8083 162.589C52.027 162.395 54.1514 162.333 56.1985 162.348C58.3761 172.141 62.2491 181.691 67.8402 190.546C64.963 193.522 61.7165 196.571 58.0106 199.589C52.7201 203.9 47.5351 207.318 42.7729 210.042C39.1319 206.034 33.4945 204.928 29.5405 207.679C25.1872 210.708 24.5254 217.231 28.0546 222.254C31.5928 227.269 37.9791 228.886 42.3217 225.864C46.1953 223.168 47.1295 217.714 44.812 212.998C49.0506 209.468 54.0572 205.79 59.9011 202.283C63.9537 199.848 67.8804 197.822 71.646 196.09C73.0415 197.992 74.5363 199.842 76.1128 201.657C79.8567 205.969 83.9104 209.843 88.2271 213.264C86.8064 218.6 84.3612 225.376 79.9245 232.496C76.0374 238.736 71.7445 243.439 68.0409 246.865C63.5148 244.42 58.1489 245.103 55.2973 248.773C52.0546 252.951 53.3122 259.435 58.1233 263.241C62.9352 267.048 69.4733 266.738 72.716 262.559C75.5293 258.937 74.9571 253.612 71.6424 249.777C74.4135 245.092 77.9566 239.876 82.4996 234.539C87.7163 228.409 92.9991 223.592 97.7219 219.845C104.438 223.908 111.596 226.985 118.958 229.1C118.517 231.598 117.898 234.224 116.992 236.962C115.273 242.195 113.001 246.494 110.768 249.937C105.9 248.388 100.795 250.109 98.7131 254.278C96.351 259.028 98.8237 265.177 104.251 267.996C107.66 269.763 111.431 269.808 114.348 268.408C116.073 267.591 117.502 266.267 118.384 264.498C118.638 263.979 118.847 263.426 118.985 262.865C120.093 258.682 117.938 253.876 113.643 251.236C115.164 247.306 117.172 242.979 119.897 238.481C121.659 235.585 123.484 233.002 125.299 230.684C129.582 231.594 133.923 232.167 138.254 232.414C138.663 232.442 139.081 232.462 139.476 232.474C141.044 237.489 142.487 243.983 142.769 251.593C143.041 259.045 142.142 265.424 141.004 270.366C135.951 270.8 131.93 274.378 131.63 279.067C131.28 284.42 135.905 289.191 141.958 289.724C147.986 290.265 153.177 286.356 153.516 281.011C153.821 276.363 150.371 272.151 145.499 270.783C145.108 265.427 145.097 259.014 146.004 251.888C146.991 244.226 148.789 237.627 150.694 232.259C158.775 231.568 166.78 229.738 174.43 226.76C176.157 229.211 177.874 231.981 179.443 235.097C182.866 241.878 184.636 248.159 185.577 253.097C181.155 255.586 178.973 260.562 180.624 265.027C182.506 270.089 188.626 272.581 194.299 270.592C199.962 268.61 203.033 262.887 201.163 257.802C199.53 253.394 194.698 250.929 189.731 251.684C187.202 246.945 184.575 241.024 182.478 234.035C181.465 230.619 180.704 227.363 180.143 224.282C185.726 221.618 191.072 218.313 196.095 214.321C200.249 217.518 204.658 221.304 209.088 225.778C215.682 232.43 220.734 239.003 224.556 244.732C221.518 248.649 221.346 254.002 224.426 257.549C227.983 261.646 234.528 261.786 239.067 257.845C243.586 253.919 244.365 247.419 240.807 243.323C237.739 239.79 232.438 239.2 228.141 241.63C222.949 236.888 217.207 230.94 211.508 223.677C207.667 218.774 204.423 213.987 201.676 209.497C206.563 204.906 210.776 199.852 214.307 194.456C215.323 194.815 216.355 195.209 217.395 195.632C224.274 198.408 229.704 201.894 233.694 204.994C232.119 209.765 233.731 214.978 237.829 217.317C242.512 220.018 248.679 217.934 251.595 212.678C254.497 207.425 253.059 200.973 248.366 198.281C244.207 195.889 238.882 197.264 235.699 201.271C231.289 199.717 225.237 196.842 219.381 191.519C218.651 190.863 217.961 190.198 217.309 189.521C220.916 183.143 223.636 176.352 225.472 169.336C230.495 169.236 236.08 169.471 242.121 170.266C251.412 171.484 259.361 173.739 265.679 176.034C265.671 181.079 268.794 185.542 273.356 186.534C278.622 187.655 283.794 183.761 284.929 177.82C286.057 171.888 282.716 166.159 277.462 165.016C272.917 164.043 268.426 166.821 266.568 171.432C259.725 170.82 251.628 169.556 242.736 167.082C236.989 165.482 231.768 163.619 227.105 161.663C227.616 158.581 227.962 155.475 228.153 152.337C228.444 147.213 228.3 142.049 227.691 136.921C232.741 134.565 238.879 132.208 246.037 130.454C252.936 128.751 259.251 127.981 264.63 127.702C266.572 132.391 271.139 135.325 275.676 134.463C280.914 133.485 284.136 127.845 282.89 121.872C281.638 115.893 276.372 111.858 271.134 112.836C266.561 113.694 263.507 118.126 263.666 123.216C258.874 124.928 252.69 126.587 245.37 127.25C237.769 127.942 231.097 127.397 225.833 126.5C224.675 121.681 223.104 116.921 221.117 112.272C223.112 110.659 225.32 109.051 227.722 107.538C233.925 103.632 239.858 101.26 244.735 99.794C247.803 103.935 253.025 105.632 257.187 103.582C261.945 101.24 263.558 94.9085 260.79 89.4345C258.012 83.9675 251.916 81.4299 247.149 83.7792C242.971 85.8298 241.217 90.9844 242.739 95.928C238.751 98.8429 233.248 102.153 226.239 104.613C223.58 105.536 220.992 106.244 218.532 106.768C216.438 102.679 214.013 98.7063 211.23 94.8924C214.357 91.6875 217.783 88.4021 221.548 85.1195C228.178 79.327 234.648 74.5668 240.579 70.681C244.464 73.8625 249.737 74.2727 253.257 71.4085C257.356 68.0503 257.527 61.4784 253.622 56.7415C249.725 51.9965 243.248 50.8639 239.156 54.2133" fill="#FFE1E1"/>
</svg>
