<svg width="1171" height="873" viewBox="0 0 1171 873" fill="none" xmlns="http://www.w3.org/2000/svg">
<path d="M541.104 722.83C505.933 743.162 469.065 756.385 427.087 756.212C380.298 756.015 333.915 724.62 304.603 690.164C293.712 677.367 284.187 662.576 281.98 645.921C276.894 607.443 312.104 596.498 343.809 596.986C361.679 597.253 378.962 602.205 396.051 607.115C424.425 615.276 456.066 616.004 482.685 629.677C491.62 634.282 498.837 640.469 508.731 643.189C524.123 647.425 540.839 647.671 556.499 651.22C569.875 654.277 585.35 660.518 587.872 673.998C590.443 687.826 577.652 699.318 565.998 707.177C557.754 712.766 549.485 718.002 541.104 722.83Z" fill="url(#paint0_linear_203_182)"/>
<path d="M292.8 267.685C333.798 157.432 457.155 86.9824 573.386 96.193C629.435 100.643 681.635 125.71 730.792 152.964C774.122 176.983 817.026 203.828 851.439 239.921C874.934 264.556 895.141 296.034 911.325 326.078C935.538 371.069 939.394 435.735 876.184 446.409C861.353 448.915 847.466 446.763 832.717 445.517C820.784 444.5 810.529 449.375 798.64 450.363C768.718 452.856 738.371 449.047 709.089 443.053C649.407 430.811 592.113 408.355 531.679 399.62C482.158 392.486 431.73 394.892 383.114 406.707C362.604 411.695 341.399 418.409 320.815 413.734C270.076 402.189 275.467 336.23 283.946 297.792C286.181 287.559 289.139 277.498 292.8 267.685V267.685Z" fill="url(#paint1_linear_203_182)"/>
<path d="M792.509 161.678C804.569 168.201 849.33 183.109 843.062 154.285C841.49 147.106 836.558 140.971 830.873 136.824C824.365 132.06 817.882 130.313 812.235 124.29C805.354 117.032 797.931 110.445 790.063 104.613C773.912 92.4207 755.963 81.8962 736.832 79.9338C723.415 78.5628 702.791 84.785 700.803 102.037C697.901 127.153 735.452 122.428 748.644 128.092C761.158 133.445 770.486 145.626 781.515 154.421C784.998 157.193 788.679 159.622 792.509 161.678V161.678Z" fill="url(#paint2_linear_203_182)"/>
<path d="M588.693 174.827C614.29 182.519 635.899 198.123 660.184 209.005C700.615 227.119 748.483 221.127 791.926 229.97C836.226 238.999 873.347 260.8 897.191 299.486C927.983 349.417 945.44 413.489 944.213 472.875C942.855 538.245 914.356 588.427 864.751 629.388C815.174 670.324 755.988 698.257 694.502 716.088C688.57 717.814 682.618 719.418 676.619 720.928C541.845 754.768 350.562 751.26 269.103 617.527C268.357 616.305 267.629 615.08 266.895 613.835C258.204 598.842 251.339 582.862 246.447 566.236C228.957 507.333 223.276 438.982 230.488 377.98C235.331 336.915 260.321 304.897 286.665 274.419C323.678 231.601 373.853 202.876 427.337 185.727C466.943 173.03 512.012 160.896 553.895 166.977C565.674 168.721 577.306 171.344 588.693 174.827Z" fill="url(#paint3_linear_203_182)"/>
<path d="M902.258 591.85C878.601 624.875 850.465 652.125 812.152 669.277C769.444 688.391 714.243 678.915 673.33 659.612C658.132 652.444 643.355 642.897 634.477 628.634C613.977 595.677 641.541 571.187 670.626 558.558C687.016 551.432 704.803 548.817 722.397 546.244C751.611 541.978 780.737 529.595 810.625 531.075C820.665 531.586 829.79 534.246 839.926 532.644C855.695 530.157 871.026 523.487 886.756 520.263C900.201 517.533 916.873 516.837 924.73 528.078C932.773 539.615 925.86 555.359 918.484 567.324C913.277 575.815 907.903 583.995 902.258 591.85Z" fill="url(#paint4_linear_203_182)"/>
<path d="M506.432 412.302C506.091 412.302 505.748 412.194 505.455 411.968C505.188 411.758 498.859 406.759 494.026 396.562C489.594 387.211 485.658 371.534 492.066 349.921C496.412 335.259 500.768 324.836 504.608 315.634C511.583 298.94 516.623 286.878 517.03 261.306C517.043 260.431 517.689 259.68 518.643 259.741C519.524 259.757 520.224 260.476 520.212 261.357C519.795 287.54 514.389 300.48 507.545 316.863C503.734 325.988 499.416 336.328 495.117 350.828C483.431 390.23 507.17 409.27 507.412 409.454C508.102 409.995 508.226 410.994 507.688 411.688C507.373 412.092 506.906 412.302 506.432 412.302Z" fill="#000C3E"/>
<path d="M636.799 161.035C636.561 178.37 622.316 192.232 604.979 191.994C587.645 191.755 573.785 177.51 574.021 160.173C574.259 142.839 588.507 128.979 605.841 129.215C623.175 129.454 637.038 143.701 636.799 161.035Z" fill="#000C3E"/>
<path d="M503.394 401.089C503.394 401.089 513.051 419.858 550.808 425.645C588.563 431.43 617.749 417.125 647.024 426.963C676.299 436.804 717.907 422.091 725.928 409.699C733.952 397.306 729.001 262.283 705.577 240.179C682.153 218.076 561.792 202.02 536.433 229.138C511.075 256.26 486.55 386.268 503.394 401.089Z" fill="#000C3E"/>
<path d="M717.938 289.38C717.155 346.508 670.209 392.185 613.078 391.402C555.95 390.62 510.273 343.67 511.055 286.542C511.841 229.414 558.788 183.737 615.916 184.52C673.044 185.306 718.721 232.252 717.938 289.38Z" fill="#000C3E"/>
<path d="M529.966 286.087C529.966 286.087 537.198 411.52 622.201 414.925C707.201 418.329 702.915 241.46 671.801 225.363C640.687 209.27 512.587 215.471 529.966 286.087Z" fill="#FFCEB0"/>
<path d="M617.744 310.891C617.744 310.891 634.871 349.145 630.761 351.805C626.65 354.462 614.432 354.296 611.075 351.534C607.718 348.773 611.012 306.726 617.744 310.891Z" fill="#F5A473"/>
<path d="M592.633 324.426C592.522 328.83 588.863 332.31 584.459 332.199C580.056 332.091 576.575 328.432 576.686 324.028C576.795 319.625 580.454 316.144 584.86 316.252C589.264 316.364 592.745 320.023 592.633 324.426Z" fill="#41294A"/>
<path d="M661.01 319.045C660.899 323.449 657.24 326.929 652.836 326.818C648.433 326.71 644.952 323.051 645.063 318.647C645.172 314.244 648.831 310.763 653.237 310.871C657.641 310.982 661.122 314.641 661.01 319.045Z" fill="#41294A"/>
<path d="M595.202 217.554C595.202 217.554 565.118 232.995 559.986 260.758C554.851 288.522 559.525 359.192 527.205 356.713C527.205 356.713 461.451 218.196 595.202 217.554" fill="#41294A"/>
<path d="M611.256 217.774C608.542 219.816 642.679 218.922 662.759 242.12C682.842 265.318 688.881 324.343 691.926 325.367C694.971 326.395 705.257 251.735 683.329 229.899C661.4 208.066 626.7 206.151 611.256 217.774Z" fill="#41294A"/>
<path d="M684.724 330.584C684.724 330.584 692.103 298.964 706.542 309.813C720.98 320.663 708.937 353.807 694.998 357.119C681.062 360.432 677.371 346.966 684.724 330.584Z" fill="#FFCEB0"/>
<path d="M550.746 328.746C550.746 328.746 544.236 296.935 529.505 307.384C514.776 317.833 525.906 351.299 539.747 354.993C553.59 358.683 557.647 345.326 550.746 328.746Z" fill="#FFCEB0"/>
<path d="M649.183 290.911C649.183 290.911 664.195 282.991 673.444 294.369C681.58 304.372 663.011 296.265 656.177 297.56C649.339 298.858 640.309 298.292 649.183 290.911Z" fill="#41294A"/>
<path d="M589.527 293.793C589.527 293.793 574.13 286.65 565.473 298.483C557.859 308.89 575.988 299.845 582.883 300.793C589.775 301.738 598.766 300.71 589.527 293.793Z" fill="#41294A"/>
<path d="M643.732 375.18C643.732 375.18 633.939 360.382 623.344 361.314C612.745 362.249 604.622 375.889 603.197 376.462C603.197 376.462 619.736 384.229 643.732 375.18" fill="#41294A"/>
<path d="M584.172 306.667C570.914 306.667 559.978 317.46 559.794 330.721C559.708 337.231 562.158 343.391 566.701 348.062C571.245 352.729 577.332 355.348 583.845 355.437L584.185 355.44C597.443 355.44 608.379 344.651 608.56 331.389C608.745 317.947 597.959 306.858 584.513 306.671L584.172 306.667ZM584.185 358.622L583.8 358.619C576.438 358.52 569.555 355.555 564.42 350.279C559.285 345.001 556.513 338.039 556.612 330.677C556.819 315.684 569.183 303.486 584.172 303.486L584.557 303.489C599.756 303.699 611.949 316.235 611.742 331.431C611.538 346.423 599.174 358.622 584.185 358.622Z" fill="#FFFCF6"/>
<path d="M653.038 301.156C639.776 301.156 628.841 311.948 628.659 325.209C628.475 338.649 639.264 349.741 652.707 349.925L653.047 349.928C666.309 349.928 677.244 339.139 677.426 325.878C677.515 319.365 675.062 313.205 670.521 308.534C665.978 303.87 659.891 301.248 653.378 301.159L653.038 301.156ZM653.047 353.11L652.666 353.107C637.463 352.897 625.271 340.361 625.478 325.165C625.684 310.173 638.046 297.974 653.038 297.974L653.423 297.977C660.785 298.076 667.667 301.041 672.8 306.316C677.938 311.595 680.709 318.556 680.608 325.919C680.401 340.911 668.037 353.11 653.047 353.11Z" fill="#FFFCF6"/>
<path d="M558.886 326.727C558.705 326.727 558.517 326.695 558.339 326.631L548.135 322.883C547.311 322.578 546.888 321.665 547.19 320.838C547.493 320.017 548.412 319.6 549.233 319.896L559.434 323.641C560.261 323.946 560.681 324.859 560.379 325.686C560.143 326.329 559.535 326.727 558.886 326.727Z" fill="#FFFCF6"/>
<path d="M677.873 319.496C677.196 319.496 676.566 319.061 676.356 318.38C676.091 317.543 676.559 316.649 677.399 316.385L691.345 312.032C692.178 311.765 693.076 312.239 693.336 313.076C693.601 313.916 693.133 314.807 692.293 315.071L678.347 319.426C678.191 319.474 678.029 319.496 677.873 319.496Z" fill="#FFFCF6"/>
<path d="M610.759 246.942C610.759 246.942 610.787 278.673 629.69 284.404C648.59 290.137 697.21 287.608 696.716 279.854C692.265 209.846 659.357 213.368 631.873 204.408C583.673 188.7 544.251 267.4 550.153 286.001C556.055 304.598 596.737 287.232 605.445 284.617C614.15 281.998 609.327 260.436 610.759 246.942" fill="#000C3E"/>
<g opacity="0.210007">
<g opacity="0.210007">
<path opacity="0.210007" d="M562.015 354.112C562.015 354.112 604.895 329.37 623.715 332.829C642.535 336.291 675.564 336.832 677.06 343.583C678.558 350.332 635.185 347.29 621.844 348.588C608.503 349.886 557.287 365.245 562.015 354.112Z" fill="#DB5C5D"/>
</g>
</g>
<path d="M586.012 337.556C585.386 337.556 584.791 337.183 584.539 336.563C584.208 335.752 584.6 334.823 585.414 334.492C589.726 332.735 590.524 331.351 590.531 331.339C590.814 330.505 591.685 330.117 592.525 330.413C593.356 330.696 593.773 331.663 593.49 332.497C593.289 333.082 592.204 335.163 586.611 337.438C586.413 337.518 586.213 337.556 586.012 337.556Z" fill="#DB5C5D"/>
<path d="M651.524 334.188C650.241 334.188 648.078 333.8 644.68 332.142C643.888 331.76 643.56 330.809 643.945 330.016C644.327 329.227 645.284 328.903 646.07 329.285C650.261 331.324 651.82 330.984 651.839 330.984C652.65 330.643 653.515 331.041 653.859 331.849C654.203 332.657 653.764 333.612 652.952 333.959C652.742 334.048 652.291 334.188 651.524 334.188Z" fill="#DB5C5D"/>
<path d="M610.128 331.541C609.323 331.541 608.629 330.933 608.546 330.112C608.457 329.237 609.094 328.454 609.969 328.368L627.042 326.625C627.898 326.517 628.696 327.169 628.785 328.044C628.874 328.919 628.238 329.702 627.363 329.787L610.29 331.531C610.236 331.537 610.182 331.541 610.128 331.541Z" fill="#FFFCF6"/>
<path d="M586.487 191.565C586.255 191.565 586.016 191.515 585.794 191.403C576.767 187.016 571.307 180.757 569.557 172.8C565.675 155.131 581.46 135.583 582.135 134.759C582.695 134.078 583.694 133.979 584.371 134.536C585.052 135.093 585.154 136.092 584.597 136.773C584.441 136.964 569.112 155.968 572.666 172.125C574.196 179.08 579.08 184.604 587.184 188.546C587.973 188.928 588.304 189.882 587.919 190.671C587.645 191.235 587.079 191.565 586.487 191.565Z" fill="#000C3E"/>
<path d="M622.817 196.294C622.374 196.294 621.935 196.109 621.62 195.753C621.041 195.091 621.105 194.089 621.767 193.507C621.951 193.344 640.195 177.121 639.343 160.598C638.977 153.487 635.066 147.235 627.72 142.014C627.004 141.508 626.835 140.515 627.344 139.796C627.853 139.083 628.846 138.915 629.562 139.424C637.742 145.233 642.104 152.306 642.521 160.445C643.444 178.508 624.665 195.196 623.864 195.899C623.561 196.164 623.189 196.294 622.817 196.294Z" fill="#000C3E"/>
<path d="M717.447 405.181C716.986 405.181 716.528 404.983 716.213 404.592C715.659 403.914 715.761 402.912 716.442 402.355C716.652 402.184 737.578 384.706 731.517 357.057C729.181 346.398 725.086 334.67 720.75 322.255C713.231 300.724 705.455 278.459 704.822 256.874C704.797 255.992 705.49 255.264 706.368 255.235C707.192 255.264 707.978 255.9 708.004 256.778C708.624 277.873 716.314 299.904 723.753 321.205C728.122 333.716 732.249 345.53 734.625 356.373C741.113 385.979 718.678 404.64 718.449 404.824C718.153 405.063 717.8 405.181 717.447 405.181Z" fill="#000C3E"/>
<path d="M723.098 291.551C723.047 291.551 722.993 291.548 722.939 291.545C722.067 291.459 721.427 290.679 721.513 289.804C724.262 261.967 718.405 239.374 704.109 222.641C681.089 195.708 643.691 193.236 643.319 193.213C642.441 193.162 641.77 192.412 641.824 191.53C641.871 190.655 642.625 189.962 643.5 190.038C643.892 190.06 682.639 192.618 706.527 220.573C721.408 237.99 727.517 261.388 724.679 290.116C724.6 290.94 723.906 291.551 723.098 291.551Z" fill="#000C3E"/>
<path d="M609.154 378.321C609.154 378.321 625.008 367.197 639.167 376.733C639.167 376.733 622.635 382.928 609.154 378.321Z" fill="#DB5C5D"/>
<path d="M619.644 389.741C618.079 389.741 616.733 389.725 615.903 389.712C615.024 389.699 614.325 388.977 614.337 388.096C614.35 387.217 614.951 386.505 615.954 386.53C621.961 386.61 629.139 386.463 630.255 386.04C631.073 385.728 631.996 386.136 632.311 386.953C632.626 387.774 632.225 388.687 631.407 389.006C629.816 389.623 623.911 389.741 619.644 389.741Z" fill="#DB5C5D"/>
<path d="M542.48 346.203C542.337 346.203 542.194 346.184 542.05 346.143C541.204 345.907 540.711 345.032 540.946 344.183C545.299 328.583 533.743 318.538 533.625 318.436C532.957 317.87 532.874 316.865 533.444 316.193C534.01 315.525 535.016 315.442 535.687 316.015C536.228 316.473 548.907 327.498 544.01 345.042C543.813 345.742 543.177 346.203 542.48 346.203Z" fill="#DB5C5D"/>
<path d="M690.92 350.003C690.885 350.003 690.853 350.003 690.815 350C689.94 349.943 689.275 349.185 689.329 348.31C690.519 329.847 699.367 319.977 699.746 319.567C700.338 318.917 701.343 318.873 701.989 319.465C702.638 320.057 702.683 321.062 702.094 321.711C702.008 321.806 693.618 331.234 692.507 348.514C692.45 349.357 691.75 350.003 690.92 350.003Z" fill="#DB5C5D"/>
<path d="M658.972 401.941C658.972 401.941 664.031 458.534 657.318 467.485C650.604 476.438 608.084 469.721 596.893 467.485C585.703 465.248 585.681 371.648 587.94 377.97C606.623 430.185 657.684 383.977 658.972 401.941Z" fill="#FFCEB0"/>
<path d="M591.986 407.539C591.986 407.539 622.152 422.038 656.445 404.487C656.445 404.487 659.111 425.57 656.445 430.431C653.782 435.293 599.46 438.767 588.766 414.806C588.766 414.806 588.9 406.498 591.986 407.539" fill="#F5A473"/>
<path d="M427.249 850.876H817.622C817.622 850.876 837.562 511.474 788.662 474.566C739.759 437.655 524.486 456.093 473.804 487.621C423.122 519.149 427.249 850.876 427.249 850.876Z" fill="#FB4C47"/>
<path d="M622.153 460.778C622.153 460.778 607.106 591.241 613.673 609.4C620.237 627.558 611.828 708.065 609.155 718.53C606.48 728.995 525.374 733.439 504.445 725.068C483.515 716.697 509.777 491.045 521.492 449.298C533.211 407.547 620.864 432.145 622.153 460.778Z" fill="#05BA6E"/>
<path d="M383.969 300.932C383.969 300.932 416.598 363.425 439.465 364.004C462.335 364.583 539.454 270.668 567.889 269.7C596.327 268.736 620.747 271.495 620.859 264.718C620.97 257.937 581.307 250.537 581.307 250.537C581.307 250.537 638.667 254.189 626.802 247.915C614.941 241.641 586.515 235.999 586.515 235.999C586.515 235.999 627.741 237.663 628.04 233.254C628.339 228.844 585.118 222.35 585.118 222.35C585.118 222.35 637.712 220.67 628.094 213.435C618.472 206.199 600.365 209.34 551.389 216.82C502.409 224.3 391.602 289.688 383.969 300.932Z" fill="#FFCEB0"/>
<path d="M441.214 297.938C441.214 297.938 493.41 329.03 470.683 364.265C446.483 401.784 447.838 390.638 443.654 405.818C439.467 420.998 508.441 450.563 511.578 463.557C514.715 476.548 482.201 636.332 451.745 629.774C425.235 624.069 277.914 540.466 256.743 456.92C240.332 392.15 374.101 233.722 441.214 297.938Z" fill="#FB4C47"/>
<path d="M577.845 662.398C577.845 662.398 520.011 789.801 541.274 806.862C562.538 823.919 579.671 812.805 598.475 823.878C617.283 834.95 635.323 829.414 650.43 819.78C665.537 810.142 626.22 683.391 609.958 671.323C593.697 659.252 580.775 655.777 577.845 662.398Z" fill="white"/>
<path d="M770.001 465.5C770.001 465.5 801.099 469.296 825.51 514C843.824 547.541 879.304 743.529 825.51 771.454C771.716 799.377 721.261 784.771 701.736 765.953C682.209 747.135 716.95 650.154 740.108 642.915C763.268 635.679 770.001 465.5 770.001 465.5Z" fill="#FB4C47"/>
<path d="M780.071 462.496C780.071 462.496 781.525 453.434 736.742 434.055C701.005 418.588 670.393 444.691 615.88 447.501C561.368 450.313 566.287 428.706 527.727 438.748C468.223 454.239 515.599 493.244 534.772 497.622C553.945 502 618.181 609.985 780.071 462.496Z" fill="#05BA6E"/>
<path d="M623.78 353.6C623.78 353.6 623.614 357.291 625.733 357.625C627.852 357.959 631.769 356.776 630.76 351.803C630.76 351.803 625.447 353.511 623.78 353.6Z" fill="white"/>
<path d="M844.514 659.318C844.365 659.318 844.212 659.309 844.059 659.287C842.589 659.077 841.501 657.893 841.345 656.483C838.695 653.419 820.899 647.002 809.028 642.719C785.509 634.234 774.961 630.037 772.693 625.446C770.768 621.554 771.63 615.942 772.721 608.837C774.449 597.593 776.603 583.593 769.463 570.109C757.134 546.822 758.308 512.281 758.365 510.824C758.435 509.067 759.953 507.661 761.665 507.766C763.421 507.833 764.789 509.312 764.726 511.065C764.71 511.409 763.564 545.371 775.089 567.131C783.212 582.479 780.784 598.27 779.012 609.801C778.162 615.321 777.364 620.536 778.398 622.627C780.326 625.602 798.898 632.302 811.185 636.734C838.879 646.725 848.494 650.744 847.658 656.588C847.432 658.176 846.07 659.318 844.514 659.318Z" fill="#B31B1F"/>
<path d="M761.5 633.159C761.223 633.159 760.943 633.124 760.66 633.047C750.148 630.18 733.816 627.196 733.654 627.164C731.923 626.852 730.777 625.195 731.092 623.467C731.407 621.736 733.059 620.572 734.793 620.906C735.47 621.027 751.554 623.967 762.334 626.906C764.03 627.371 765.029 629.118 764.567 630.814C764.182 632.23 762.9 633.159 761.5 633.159Z" fill="#B31B1F"/>
<path d="M818.653 790.54C818.602 790.54 818.555 790.54 818.507 790.537C759.613 787.867 700.935 762.779 697.763 738.916C696.767 731.417 696.048 727.665 695.603 725.811C694.413 725.219 693.691 723.952 693.904 722.568C694.308 719.947 696.083 719.018 697.493 719.018H697.528C700.732 719.053 701.795 720.93 704.073 738.079C706.535 756.603 759.957 781.513 818.793 784.179C820.55 784.259 821.908 785.745 821.829 787.501C821.752 789.21 820.343 790.54 818.653 790.54Z" fill="#B31B1F"/>
<path d="M713.077 734.226C712.845 734.226 712.609 734.2 712.371 734.149C710.659 733.761 709.583 732.056 709.972 730.341C710.108 729.727 724.025 668.383 737.032 624.256C737.529 622.569 739.31 621.602 740.984 622.105C742.67 622.601 743.634 624.37 743.135 626.056C730.185 669.987 716.316 731.133 716.179 731.747C715.842 733.224 714.531 734.226 713.077 734.226Z" fill="#B31B1F"/>
<path d="M437 600.994C436.844 600.994 436.682 600.982 436.523 600.959C434.786 600.699 433.59 599.076 433.85 597.342C434.178 595.146 442.034 543.3 452.814 519.039C463.294 495.463 468.659 471.558 468.713 471.32C469.088 469.605 470.784 468.532 472.509 468.902C474.223 469.283 475.305 470.986 474.923 472.701C474.704 473.7 469.365 497.467 458.63 521.626C448.2 545.098 440.22 597.755 440.141 598.284C439.905 599.865 438.547 600.994 437 600.994Z" fill="#B31B1F"/>
<path d="M388.497 419.977C380.027 419.977 370.536 419.462 360.088 418.132C358.344 417.909 357.109 416.318 357.332 414.575C357.552 412.831 359.184 411.619 360.889 411.819C392.707 415.873 415.31 412.141 426.961 409.598C421.158 407.743 413.028 405.936 404.915 406.378C386.658 407.237 359.944 390.928 358.815 390.228C357.319 389.305 356.858 387.345 357.781 385.85C358.703 384.354 360.667 383.887 362.159 384.816C362.42 384.975 388.351 400.817 404.587 400.021C420.054 399.207 438.371 406.095 440.035 409.051C440.63 410.104 440.582 411.472 439.904 412.475C439.274 413.4 437.97 413.957 436.825 413.887C436.322 413.945 434.833 414.301 433.385 414.645C426.427 416.312 411.091 419.974 388.497 419.977Z" fill="#B31B1F"/>
<path d="M466.708 351.594C465.525 351.594 464.389 350.932 463.841 349.799C463.762 349.637 455.817 333.499 442.288 327.104C426.93 319.84 409.561 294.523 408.829 293.451C407.84 291.997 408.215 290.015 409.666 289.028C411.123 288.042 413.099 288.421 414.085 289.865C414.257 290.113 431.213 314.823 445.012 321.348C460.602 328.727 469.212 346.287 469.572 347.028C470.335 348.613 469.67 350.509 468.089 351.273C467.644 351.492 467.173 351.594 466.708 351.594Z" fill="#B31B1F"/>
<path d="M614.497 536.501C614.379 536.501 614.258 536.488 614.141 536.46C613.285 536.265 612.747 535.41 612.944 534.557C613.021 534.22 620.609 501.047 622.83 484.196C626.289 457.925 614.523 448.761 614.405 448.672C613.702 448.144 613.555 447.151 614.077 446.448C614.599 445.742 615.585 445.592 616.292 446.111C616.842 446.515 629.709 456.318 625.983 484.61C623.746 501.613 616.123 534.932 616.047 535.263C615.878 536.005 615.223 536.501 614.497 536.501Z" fill="#08824F"/>
<path d="M520.663 488.657L517.503 488.291C517.503 488.291 519.972 466.811 521.261 456.251C522.562 445.599 525.601 438.325 525.731 438.02C526.072 437.205 527.007 436.836 527.815 437.17C528.623 437.514 529.002 438.449 528.662 439.257C528.63 439.327 525.661 446.454 524.42 456.639C523.132 467.19 520.663 488.654 520.663 488.657Z" fill="#08824F"/>
<path d="M611.008 841.386C592.863 841.386 582.885 840.787 569.076 839.96C551.312 838.894 526.988 837.437 470.143 836.553C468.387 836.527 466.984 835.083 467.012 833.323C467.041 831.567 468.587 830.103 470.242 830.189C527.227 831.074 551.634 832.54 569.455 833.609C583.155 834.427 593.05 835.022 611.008 835.022C633.487 835.022 653.653 832.559 673.157 830.18C690.278 828.086 706.447 826.113 723.778 825.728C760.747 824.914 788.374 825.725 788.647 825.728C790.404 825.786 791.785 827.252 791.73 829.005C791.676 830.762 790.194 832.063 788.456 832.092C788.183 832.082 760.712 831.268 723.921 832.092C706.905 832.467 690.885 834.424 673.927 836.495C654.235 838.901 633.875 841.386 611.008 841.386Z" fill="#B31B1F"/>
<path d="M755.143 798.932C753.562 798.932 751.977 798.223 750.597 796.136C746.298 789.642 745 789.107 736.689 790.386C729.171 791.56 726.202 786.231 724.236 782.709C723.58 781.531 722.957 780.421 722.413 779.992C720.949 778.837 717.293 780.224 715.747 781.076L714.204 778.296C714.878 777.92 720.873 774.723 724.385 777.494C725.426 778.318 726.161 779.635 727.014 781.156C728.913 784.551 730.879 788.048 736.202 787.243C745.716 785.773 748.258 786.845 753.25 794.379C754.574 796.384 755.719 796.11 759.248 794.052C761.927 792.48 765.99 790.109 769.019 794.341L766.435 796.193C765.255 794.554 764.186 794.85 760.851 796.797C759.257 797.73 757.202 798.932 755.143 798.932Z" fill="white"/>
<path d="M718.124 649.085C718.124 649.085 642.125 621.604 609.153 635.661C576.181 649.715 549.009 685.948 554.042 688.344C559.076 690.743 586.012 669.852 586.012 669.852C586.012 669.852 558.544 697.609 563.638 700.387C568.732 703.164 595.201 688.344 595.201 688.344C595.201 688.344 576.725 708.096 584.66 709.607C592.595 711.119 609.608 694.844 627.349 694.233C645.094 693.619 667.455 707.641 689.638 711.59C711.818 715.535 718.124 649.085 718.124 649.085Z" fill="#FFCEB0"/>
<path d="M832.818 634.84C832.621 634.84 832.423 634.821 832.223 634.783C832 634.744 809.62 630.513 782.865 625.072C781.143 624.722 780.03 623.042 780.38 621.321C780.727 619.599 782.403 618.486 784.131 618.839C810.842 624.267 833.184 628.489 833.407 628.534C835.134 628.858 836.267 630.522 835.939 632.25C835.653 633.777 834.317 634.84 832.818 634.84Z" fill="#B31B1F"/>
<path fill-rule="evenodd" clip-rule="evenodd" d="M620.41 134.769C619.579 134.769 618.676 134.866 617.697 135.059C615.312 135.538 613.767 136.697 612.838 138.708C608.702 147.662 617.424 168.987 623.656 181.585C627.507 167.609 632.122 144.248 625.601 136.886C624.345 135.471 622.636 134.769 620.41 134.769ZM623.839 192.049C623.939 192.068 624.04 192.082 624.142 192.09C624.474 192.218 624.828 192.284 625.185 192.284C625.517 192.284 625.849 192.229 626.172 192.112C630.422 190.562 667.843 176.527 672.505 160.355C673.626 156.467 672.837 152.632 670.225 149.273C665.782 143.553 660.982 142.873 657.735 143.305C648.524 144.534 639.457 156.434 632.808 167.74C635.16 154.863 636.065 139.992 629.922 133.056C627.755 130.608 623.673 127.983 616.568 129.398C612.397 130.23 609.294 132.615 607.598 136.29C601.32 149.887 615.762 179.169 620.575 188.244C614.505 189.415 608.402 189.679 602.563 189.283C589.984 188.428 578.834 184.516 572.177 180.237L569.798 183.938C577.164 188.673 589.052 192.775 602.265 193.673C609.194 194.144 616.543 193.737 623.839 192.049ZM659.327 148.971C659.054 148.971 658.777 148.987 658.5 149.029C648.744 150.327 636.956 171.018 630.725 184.107C643.68 178.652 664.228 168.233 666.957 158.759C667.57 156.626 667.159 154.741 665.668 152.817C663.661 150.235 661.582 148.971 659.327 148.971Z" fill="#FFD310"/>
<path d="M197.269 243.75H310.515C317.784 243.75 324.662 247.045 329.218 252.71L362.458 294.048C367.173 299.91 374.363 303.223 381.882 302.997L594.85 296.596" stroke="#FFB2B1" stroke-width="5" stroke-linejoin="round"/>
<path d="M209.361 244.265C209.361 249.301 205.279 253.384 200.243 253.384C195.206 253.384 191.124 249.301 191.124 244.265C191.124 239.229 195.206 235.147 200.243 235.147C205.279 235.147 209.361 239.229 209.361 244.265Z" fill="#FF383D"/>
<path opacity="0.15" d="M11 244.366C11 205.356 42.6243 173.732 81.6341 173.732C120.644 173.732 152.265 205.356 152.265 244.366C152.265 283.376 120.644 315 81.6341 315C42.6243 315 11 283.376 11 244.366Z" fill="#FF383D"/>
<path d="M81.3302 156.49C130.103 156.49 169.64 196.028 169.64 244.8C169.64 293.573 130.103 333.113 81.3302 333.113V376.724" stroke="#FFD6D7" stroke-width="2.4" stroke-miterlimit="10"/>
<path d="M74.0677 378.928C74.0677 374.916 77.3183 371.665 81.3299 371.665C85.3416 371.665 88.5922 374.916 88.5922 378.928C88.5922 382.939 85.3416 386.19 81.3299 386.19C77.3183 386.19 74.0677 382.939 74.0677 378.928Z" fill="#F2AEB0"/>
<path d="M63.5 247.619L58.5371 238.359H62.4365L64.9932 244.654H67.4102L66.959 247.619H63.5ZM64.9502 247.093L62.2646 254H58.3652L62.415 245.191L64.9502 247.093ZM69.4082 238.359V254H66.2822V238.359H69.4082ZM77.0244 238.359L72.1582 247.619H68.7314L68.2803 244.654H70.665L73.1572 238.359H77.0244ZM73.3076 254L70.708 247.093L73.2432 245.191L77.207 254H73.3076ZM84.3291 241.152L80.9668 254H77.6475L82.5352 238.359H84.6084L84.3291 241.152ZM86.9824 254L83.5986 241.152L83.2871 238.359H85.3926L90.3232 254H86.9824ZM87.1006 248.167V250.777H80.043V248.167H87.1006ZM97.1445 248.489H93.9434V245.879H97.1338C97.5921 245.879 97.9609 245.779 98.2402 245.578C98.5195 245.378 98.7236 245.102 98.8525 244.751C98.9814 244.393 99.0459 243.992 99.0459 243.548C99.0459 243.097 98.9814 242.674 98.8525 242.28C98.7236 241.886 98.5195 241.571 98.2402 241.335C97.9609 241.092 97.5957 240.97 97.1445 240.97H94.9531V254H91.8164V238.359H97.1445C98.1973 238.359 99.1032 238.581 99.8623 239.025C100.621 239.469 101.201 240.082 101.603 240.862C102.011 241.636 102.215 242.524 102.215 243.526C102.215 244.529 102.011 245.403 101.603 246.148C101.194 246.892 100.611 247.469 99.8516 247.877C99.0996 248.285 98.1973 248.489 97.1445 248.489Z" fill="#FF383D"/>
<path d="M650.77 358.046H819.584C828.398 358.046 836.503 362.877 840.695 370.63L871.944 428.419C876.136 436.172 884.241 441.004 893.055 441.004H975.84" stroke="#FFB2B1" stroke-width="5" stroke-linejoin="round"/>
<path d="M979.944 440.905C979.944 445.941 975.862 450.023 970.826 450.023C965.79 450.023 961.708 445.941 961.708 440.905C961.708 435.868 965.79 431.786 970.826 431.786C975.862 431.786 979.944 435.868 979.944 440.905Z" fill="#FF383D"/>
<path opacity="0.15" d="M1005.73 459.366C1005.73 420.356 1037.36 388.732 1076.37 388.732C1115.38 388.732 1147 420.356 1147 459.366C1147 498.376 1115.38 530 1076.37 530C1037.36 530 1005.73 498.376 1005.73 459.366Z" fill="#FF383D"/>
<path d="M1034.05 459.729V462.243H1025.89V459.729H1034.05ZM1026.84 453.359V469H1023.62V453.359H1026.84ZM1036.35 453.359V469H1033.14V453.359H1036.35ZM1045.71 456.034L1041.45 469H1038.03L1043.84 453.359H1046.02L1045.71 456.034ZM1049.24 469L1044.98 456.034L1044.63 453.359H1046.84L1052.68 469H1049.24ZM1049.05 463.178V465.702H1040.79V463.178H1049.05ZM1063 463.812H1066.21C1066.15 464.864 1065.86 465.799 1065.34 466.615C1064.84 467.432 1064.12 468.069 1063.21 468.527C1062.3 468.986 1061.2 469.215 1059.92 469.215C1058.92 469.215 1058.02 469.043 1057.22 468.699C1056.43 468.348 1055.75 467.847 1055.18 467.195C1054.62 466.544 1054.2 465.756 1053.9 464.832C1053.61 463.908 1053.46 462.873 1053.46 461.728V460.643C1053.46 459.497 1053.61 458.462 1053.91 457.538C1054.22 456.607 1054.66 455.816 1055.23 455.164C1055.8 454.512 1056.48 454.011 1057.28 453.66C1058.07 453.309 1058.96 453.134 1059.94 453.134C1061.24 453.134 1062.34 453.37 1063.24 453.843C1064.14 454.315 1064.84 454.967 1065.33 455.798C1065.83 456.629 1066.14 457.574 1066.24 458.634H1063.01C1062.98 458.004 1062.85 457.47 1062.64 457.033C1062.42 456.589 1062.1 456.256 1061.66 456.034C1061.23 455.805 1060.66 455.69 1059.94 455.69C1059.4 455.69 1058.93 455.791 1058.53 455.991C1058.13 456.192 1057.8 456.496 1057.52 456.904C1057.25 457.312 1057.05 457.828 1056.91 458.451C1056.78 459.067 1056.72 459.79 1056.72 460.621V461.728C1056.72 462.537 1056.78 463.249 1056.9 463.865C1057.02 464.474 1057.21 464.99 1057.46 465.412C1057.72 465.827 1058.05 466.143 1058.45 466.357C1058.86 466.565 1059.35 466.669 1059.92 466.669C1060.59 466.669 1061.15 466.562 1061.58 466.347C1062.02 466.132 1062.35 465.813 1062.58 465.391C1062.82 464.968 1062.96 464.442 1063 463.812ZM1069.8 453.359H1072.53L1076.55 464.843L1080.57 453.359H1083.29L1077.64 469H1075.45L1069.8 453.359ZM1068.33 453.359H1071.05L1071.54 464.553V469H1068.33V453.359ZM1082.05 453.359H1084.78V469H1081.55V464.553L1082.05 453.359ZM1100.45 460.814V461.556C1100.45 462.744 1100.29 463.812 1099.97 464.757C1099.64 465.702 1099.19 466.508 1098.6 467.174C1098.01 467.833 1097.31 468.338 1096.5 468.688C1095.69 469.039 1094.79 469.215 1093.8 469.215C1092.82 469.215 1091.92 469.039 1091.1 468.688C1090.29 468.338 1089.59 467.833 1089 467.174C1088.4 466.508 1087.94 465.702 1087.61 464.757C1087.29 463.812 1087.13 462.744 1087.13 461.556V460.814C1087.13 459.618 1087.29 458.551 1087.61 457.613C1087.94 456.668 1088.39 455.862 1088.98 455.196C1089.57 454.53 1090.27 454.022 1091.08 453.671C1091.9 453.32 1092.8 453.145 1093.78 453.145C1094.77 453.145 1095.67 453.32 1096.48 453.671C1097.29 454.022 1097.99 454.53 1098.58 455.196C1099.17 455.862 1099.63 456.668 1099.96 457.613C1100.28 458.551 1100.45 459.618 1100.45 460.814ZM1097.19 461.556V460.793C1097.19 459.962 1097.12 459.232 1096.97 458.602C1096.82 457.971 1096.6 457.441 1096.3 457.012C1096.01 456.582 1095.65 456.26 1095.23 456.045C1094.81 455.823 1094.32 455.712 1093.78 455.712C1093.23 455.712 1092.75 455.823 1092.33 456.045C1091.91 456.26 1091.56 456.582 1091.27 457.012C1090.98 457.441 1090.76 457.971 1090.61 458.602C1090.46 459.232 1090.38 459.962 1090.38 460.793V461.556C1090.38 462.379 1090.46 463.11 1090.61 463.747C1090.76 464.377 1090.98 464.911 1091.28 465.348C1091.57 465.777 1091.93 466.103 1092.35 466.325C1092.77 466.547 1093.26 466.658 1093.8 466.658C1094.34 466.658 1094.83 466.547 1095.25 466.325C1095.67 466.103 1096.03 465.777 1096.31 465.348C1096.6 464.911 1096.82 464.377 1096.97 463.747C1097.12 463.11 1097.19 462.379 1097.19 461.556ZM1108.86 463.425H1104.88V460.911H1108.86C1109.48 460.911 1109.98 460.811 1110.36 460.61C1110.75 460.403 1111.03 460.116 1111.21 459.751C1111.39 459.386 1111.48 458.974 1111.48 458.516C1111.48 458.05 1111.39 457.617 1111.21 457.216C1111.03 456.815 1110.75 456.493 1110.36 456.249C1109.98 456.006 1109.48 455.884 1108.86 455.884H1105.99V469H1102.77V453.359H1108.86C1110.09 453.359 1111.13 453.581 1112.01 454.025C1112.89 454.462 1113.56 455.067 1114.03 455.841C1114.49 456.614 1114.73 457.499 1114.73 458.494C1114.73 459.504 1114.49 460.378 1114.03 461.115C1113.56 461.853 1112.89 462.422 1112.01 462.823C1111.13 463.224 1110.09 463.425 1108.86 463.425ZM1120.18 453.359V469H1116.96V453.359H1120.18ZM1129.4 453.359L1123.41 462.544H1119.46L1119.06 459.676H1121.69L1125.49 453.359H1129.4ZM1126.08 469L1121.7 462.007L1123.93 459.708L1129.9 469H1126.08Z" fill="#FF383D"/>
<path d="M1081.03 371.265C1129.8 371.265 1169.34 410.803 1169.34 459.578C1169.34 508.35 1129.8 547.888 1081.03 547.888V591.502" stroke="#FFD6D7" stroke-width="2.4" stroke-miterlimit="10"/>
<path d="M1073.77 593.704C1073.77 589.692 1077.02 586.442 1081.03 586.442C1085.04 586.442 1088.29 589.692 1088.29 593.704C1088.29 597.716 1085.04 600.966 1081.03 600.966C1077.02 600.966 1073.77 597.716 1073.77 593.704Z" fill="#F2AEB0"/>
<path opacity="0.15" d="M11.0006 730.366C11.0006 691.356 42.6249 659.732 81.6347 659.732C120.644 659.732 152.266 691.356 152.266 730.366C152.266 769.376 120.644 801 81.6347 801C42.6249 801 11.0006 769.376 11.0006 730.366Z" fill="#FF383D"/>
<g filter="url(#filter0_d_203_182)">
<path d="M39.2448 732.815V733.556C39.2448 734.745 39.0836 735.812 38.7614 736.757C38.4391 737.702 37.9843 738.508 37.3971 739.174C36.8099 739.833 36.108 740.338 35.2916 740.689C34.4824 741.039 33.5836 741.215 32.5953 741.215C31.6142 741.215 30.7155 741.039 29.899 740.689C29.0898 740.338 28.388 739.833 27.7936 739.174C27.1992 738.508 26.7373 737.702 26.4078 736.757C26.0856 735.812 25.9244 734.745 25.9244 733.556V732.815C25.9244 731.619 26.0856 730.551 26.4078 729.613C26.7301 728.668 27.1849 727.862 27.7721 727.196C28.3665 726.53 29.0683 726.022 29.8776 725.671C30.694 725.32 31.5927 725.145 32.5739 725.145C33.5621 725.145 34.4609 725.32 35.2701 725.671C36.0865 726.022 36.7884 726.53 37.3756 727.196C37.97 727.862 38.4283 728.668 38.7506 729.613C39.08 730.551 39.2448 731.619 39.2448 732.815ZM35.9899 733.556V732.793C35.9899 731.962 35.9147 731.232 35.7643 730.602C35.6139 729.971 35.3919 729.441 35.0983 729.012C34.8046 728.582 34.4466 728.26 34.024 728.045C33.6015 727.823 33.1181 727.712 32.5739 727.712C32.0296 727.712 31.5462 727.823 31.1237 728.045C30.7083 728.26 30.3538 728.582 30.0602 729.012C29.7737 729.441 29.5553 729.971 29.4049 730.602C29.2545 731.232 29.1793 731.962 29.1793 732.793V733.556C29.1793 734.379 29.2545 735.11 29.4049 735.747C29.5553 736.377 29.7773 736.911 30.0709 737.348C30.3645 737.777 30.7226 738.103 31.1451 738.325C31.5677 738.547 32.0511 738.658 32.5953 738.658C33.1396 738.658 33.623 738.547 34.0455 738.325C34.4681 738.103 34.8226 737.777 35.109 737.348C35.3955 736.911 35.6139 736.377 35.7643 735.747C35.9147 735.11 35.9899 734.379 35.9899 733.556ZM47.8278 725.359V741H44.6158V725.359H47.8278ZM52.6403 725.359V727.884H39.8785V725.359H52.6403ZM65.9606 738.486V741H54.692V738.486H65.9606ZM55.6481 738.486V744.835H52.6188L52.4469 738.486H55.6481ZM68.2809 738.486L68.0016 744.846H65.0475V738.486H68.2809ZM64.1881 725.359V727.884H56.6578V725.359H64.1881ZM66.4869 725.359V741H63.275V725.359H66.4869ZM56.2604 725.359H59.483L59.0641 731.73C58.9996 732.782 58.8851 733.713 58.7203 734.523C58.5628 735.325 58.3694 736.03 58.1403 736.639C57.9183 737.247 57.6712 737.781 57.399 738.239C57.1269 738.69 56.8405 739.084 56.5397 739.421C56.2389 739.75 55.9345 740.044 55.6266 740.302C55.3186 740.552 55.0179 740.785 54.7242 741H52.8766V738.486H53.5963C53.804 738.315 54.0224 738.078 54.2516 737.777C54.4879 737.477 54.7099 737.072 54.9176 736.564C55.1324 736.048 55.3186 735.396 55.4762 734.608C55.6409 733.821 55.7627 732.861 55.8414 731.73L56.2604 725.359ZM72.0729 731.064H75.7252C76.9498 731.064 78.0061 731.268 78.8942 731.676C79.7893 732.084 80.4733 732.657 80.9459 733.395C81.4257 734.132 81.6656 734.992 81.6656 735.973C81.6656 736.718 81.5296 737.398 81.2574 738.014C80.9853 738.622 80.5914 739.152 80.0758 739.604C79.5602 740.048 78.9371 740.391 78.2067 740.635C77.4762 740.878 76.649 741 75.7252 741H69.9674V725.359H73.2008V738.486H75.7252C76.3339 738.486 76.8388 738.372 77.2399 738.143C77.6481 737.913 77.9524 737.609 78.153 737.23C78.3535 736.843 78.4537 736.417 78.4537 735.951C78.4537 735.507 78.3535 735.106 78.153 734.748C77.9524 734.383 77.6481 734.096 77.2399 733.889C76.8388 733.681 76.3339 733.577 75.7252 733.577H72.0729V731.064ZM86.2633 725.359V741H83.0514V725.359H86.2633ZM89.0348 725.359H92.2682V738.486H96.6295V725.359H99.8522V738.486H104.171V725.359H107.382V741H89.0348V725.359ZM113.377 725.359V741H110.154V725.359H113.377ZM122.593 725.359L116.599 734.544H112.657L112.249 731.676H114.88L118.683 725.359H122.593ZM119.274 741L114.891 734.007L117.126 731.708L123.098 741H119.274ZM130.725 728.034L126.471 741H123.045L128.856 725.359H131.037L130.725 728.034ZM134.259 741L129.995 728.034L129.651 725.359H131.853L137.697 741H134.259ZM134.066 735.178V737.702H125.805V735.178H134.066Z" fill="#FF383D"/>
</g>
<path d="M81.3324 642.642C130.105 642.642 169.642 682.18 169.642 730.952C169.642 779.727 130.105 819.265 81.3324 819.265V862.876" stroke="#FFD6D7" stroke-width="2.4" stroke-miterlimit="10"/>
<path d="M74.0699 865.08C74.0699 861.068 77.3205 857.818 81.3321 857.818C85.3438 857.818 88.5944 861.068 88.5944 865.08C88.5944 869.089 85.3438 872.342 81.3321 872.342C77.3205 872.342 74.0699 869.089 74.0699 865.08Z" fill="#F2AEB0"/>
<path d="M186.74 742.834H365.033C374.666 742.834 383.365 737.075 387.127 728.207L443.54 595.233C447.302 586.365 456.002 580.606 465.634 580.606H672.809" stroke="#FFB2B1" stroke-width="5" stroke-linejoin="round"/>
<path d="M201.987 743.241C201.987 748.277 197.904 752.359 192.868 752.359C187.832 752.359 183.75 748.277 183.75 743.241C183.75 738.205 187.832 734.122 192.868 734.122C197.904 734.122 201.987 738.205 201.987 743.241Z" fill="#FF383D"/>
<path opacity="0.15" d="M159.268 488.366C159.268 449.356 127.644 417.732 88.6337 417.732C49.6239 417.732 17.9996 449.356 17.9996 488.366C17.9996 527.376 49.6239 559 88.6337 559C127.644 559 159.268 527.376 159.268 488.366Z" fill="#FF383D"/>
<path d="M71.6733 466.359V468.884H64.6372V482H61.4253V466.359H71.6733ZM63.5308 472.063H67.1831C68.4149 472.063 69.4748 472.268 70.3628 472.676C71.2508 473.084 71.9347 473.657 72.4146 474.395C72.8944 475.132 73.1343 475.992 73.1343 476.973C73.1343 477.717 72.9982 478.398 72.7261 479.014C72.4539 479.622 72.0565 480.152 71.5337 480.604C71.0181 481.048 70.395 481.391 69.6646 481.635C68.9341 481.878 68.1069 482 67.1831 482H61.4253V466.359H64.6587V479.486H67.1831C67.799 479.486 68.3075 479.372 68.7085 479.143C69.1095 478.913 69.4103 478.609 69.6108 478.229C69.8185 477.843 69.9224 477.417 69.9224 476.951C69.9224 476.507 69.8185 476.106 69.6108 475.748C69.4103 475.383 69.1095 475.096 68.7085 474.889C68.3075 474.681 67.799 474.577 67.1831 474.577H63.5308V472.063ZM88.0874 473.814V474.556C88.0874 475.744 87.9263 476.812 87.604 477.757C87.2817 478.702 86.827 479.508 86.2397 480.174C85.6525 480.833 84.9507 481.338 84.1343 481.688C83.325 482.039 82.4263 482.215 81.438 482.215C80.4569 482.215 79.5581 482.039 78.7417 481.688C77.9325 481.338 77.2306 480.833 76.6362 480.174C76.0418 479.508 75.5799 478.702 75.2505 477.757C74.9282 476.812 74.7671 475.744 74.7671 474.556V473.814C74.7671 472.618 74.9282 471.551 75.2505 470.613C75.5728 469.668 76.0275 468.862 76.6147 468.196C77.2091 467.53 77.911 467.022 78.7202 466.671C79.5366 466.32 80.4354 466.145 81.4165 466.145C82.4048 466.145 83.3035 466.32 84.1128 466.671C84.9292 467.022 85.631 467.53 86.2183 468.196C86.8127 468.862 87.271 469.668 87.5933 470.613C87.9227 471.551 88.0874 472.618 88.0874 473.814ZM84.8325 474.556V473.793C84.8325 472.962 84.7573 472.232 84.6069 471.602C84.4565 470.971 84.2345 470.441 83.9409 470.012C83.6473 469.582 83.2892 469.26 82.8667 469.045C82.4442 468.823 81.9608 468.712 81.4165 468.712C80.8722 468.712 80.3888 468.823 79.9663 469.045C79.5509 469.26 79.1965 469.582 78.9028 470.012C78.6164 470.441 78.3979 470.971 78.2476 471.602C78.0972 472.232 78.022 472.962 78.022 473.793V474.556C78.022 475.379 78.0972 476.11 78.2476 476.747C78.3979 477.377 78.62 477.911 78.9136 478.348C79.2072 478.777 79.5653 479.103 79.9878 479.325C80.4103 479.547 80.8937 479.658 81.438 479.658C81.9823 479.658 82.4657 479.547 82.8882 479.325C83.3107 479.103 83.6652 478.777 83.9517 478.348C84.2381 477.911 84.4565 477.377 84.6069 476.747C84.7573 476.11 84.8325 475.379 84.8325 474.556ZM100.495 466.359V468.884H92.7173V466.359H100.495ZM102.793 466.359V482H99.5708V466.359H102.793ZM92.3091 466.359H95.521L95.1235 474.212C95.0662 475.386 94.9552 476.407 94.7905 477.273C94.633 478.14 94.4181 478.878 94.146 479.486C93.8739 480.088 93.5373 480.575 93.1362 480.947C92.7424 481.312 92.2769 481.581 91.7397 481.753C91.2026 481.918 90.5903 482 89.9028 482H89.1079V479.486L89.5161 479.454C89.867 479.418 90.175 479.325 90.4399 479.175C90.7049 479.024 90.9305 478.799 91.1167 478.498C91.3101 478.197 91.4676 477.814 91.5894 477.349C91.7183 476.876 91.8185 476.299 91.8901 475.619C91.9689 474.939 92.0226 474.144 92.0513 473.234L92.3091 466.359ZM107.681 472.063H111.333C112.565 472.063 113.625 472.268 114.513 472.676C115.401 473.084 116.085 473.657 116.565 474.395C117.045 475.132 117.285 475.992 117.285 476.973C117.285 477.717 117.149 478.398 116.876 479.014C116.604 479.622 116.207 480.152 115.684 480.604C115.168 481.048 114.545 481.391 113.815 481.635C113.084 481.878 112.257 482 111.333 482H105.576V466.359H108.809V479.486H111.333C111.949 479.486 112.458 479.372 112.859 479.143C113.26 478.913 113.561 478.609 113.761 478.229C113.969 477.843 114.073 477.417 114.073 476.951C114.073 476.507 113.969 476.106 113.761 475.748C113.561 475.383 113.26 475.096 112.859 474.889C112.458 474.681 111.949 474.577 111.333 474.577H107.681V472.063ZM52.9819 504.136H48.9644L48.9429 501.923H52.3159C52.9103 501.923 53.3973 501.848 53.7769 501.697C54.1564 501.54 54.4393 501.314 54.6255 501.021C54.8188 500.72 54.9155 500.354 54.9155 499.925C54.9155 499.438 54.8224 499.044 54.6362 498.743C54.4572 498.442 54.1743 498.224 53.7876 498.088C53.408 497.952 52.9175 497.884 52.3159 497.884H50.0815V511H46.8589V495.359H52.3159C53.2254 495.359 54.0382 495.445 54.7544 495.617C55.4777 495.789 56.09 496.05 56.5913 496.401C57.0926 496.752 57.4757 497.196 57.7407 497.733C58.0057 498.263 58.1382 498.894 58.1382 499.624C58.1382 500.269 57.9914 500.863 57.6978 501.407C57.4113 501.951 56.9565 502.396 56.3335 502.739C55.7176 503.083 54.9119 503.273 53.9165 503.309L52.9819 504.136ZM52.8423 511H48.0835L49.3403 508.486H52.8423C53.408 508.486 53.87 508.397 54.228 508.218C54.5861 508.032 54.8511 507.781 55.0229 507.466C55.1948 507.151 55.2808 506.789 55.2808 506.381C55.2808 505.923 55.202 505.525 55.0444 505.188C54.894 504.852 54.6506 504.594 54.314 504.415C53.9774 504.229 53.5334 504.136 52.9819 504.136H49.8774L49.8989 501.923H53.7661L54.5073 502.793C55.4598 502.779 56.2261 502.947 56.8062 503.298C57.3934 503.642 57.8195 504.089 58.0845 504.641C58.3566 505.192 58.4927 505.783 58.4927 506.413C58.4927 507.416 58.2743 508.261 57.8374 508.948C57.4006 509.629 56.7596 510.141 55.9146 510.484C55.0767 510.828 54.0526 511 52.8423 511ZM76.6577 495.359V497.884H69.6108V511H66.3989V495.359H76.6577ZM90.7729 502.814V503.556C90.7729 504.744 90.6118 505.812 90.2896 506.757C89.9673 507.702 89.5125 508.508 88.9253 509.174C88.3381 509.833 87.6362 510.338 86.8198 510.688C86.0106 511.039 85.1118 511.215 84.1235 511.215C83.1424 511.215 82.2437 511.039 81.4272 510.688C80.618 510.338 79.9162 509.833 79.3218 509.174C78.7274 508.508 78.2655 507.702 77.936 506.757C77.6138 505.812 77.4526 504.744 77.4526 503.556V502.814C77.4526 501.618 77.6138 500.551 77.936 499.613C78.2583 498.668 78.7131 497.862 79.3003 497.196C79.8947 496.53 80.5965 496.022 81.4058 495.671C82.2222 495.32 83.1209 495.145 84.1021 495.145C85.0903 495.145 85.9891 495.32 86.7983 495.671C87.6147 496.022 88.3166 496.53 88.9038 497.196C89.4982 497.862 89.9565 498.668 90.2788 499.613C90.6082 500.551 90.7729 501.618 90.7729 502.814ZM87.5181 503.556V502.793C87.5181 501.962 87.4429 501.232 87.2925 500.602C87.1421 499.971 86.9201 499.441 86.6265 499.012C86.3328 498.582 85.9748 498.26 85.5522 498.045C85.1297 497.823 84.6463 497.712 84.1021 497.712C83.5578 497.712 83.0744 497.823 82.6519 498.045C82.2365 498.26 81.882 498.582 81.5884 499.012C81.3019 499.441 81.0835 499.971 80.9331 500.602C80.7827 501.232 80.7075 501.962 80.7075 502.793V503.556C80.7075 504.379 80.7827 505.11 80.9331 505.747C81.0835 506.377 81.3055 506.911 81.5991 507.348C81.8927 507.777 82.2508 508.103 82.6733 508.325C83.0959 508.547 83.5793 508.658 84.1235 508.658C84.6678 508.658 85.1512 508.547 85.5737 508.325C85.9963 508.103 86.3507 507.777 86.6372 507.348C86.9237 506.911 87.1421 506.377 87.2925 505.747C87.4429 505.11 87.5181 504.379 87.5181 503.556ZM99.1841 505.425H95.1987V502.911H99.1841C99.8 502.911 100.301 502.811 100.688 502.61C101.075 502.403 101.358 502.116 101.537 501.751C101.716 501.386 101.805 500.974 101.805 500.516C101.805 500.05 101.716 499.617 101.537 499.216C101.358 498.815 101.075 498.493 100.688 498.249C100.301 498.006 99.8 497.884 99.1841 497.884H96.3159V511H93.0933V495.359H99.1841C100.409 495.359 101.458 495.581 102.332 496.025C103.212 496.462 103.886 497.067 104.351 497.841C104.817 498.614 105.049 499.499 105.049 500.494C105.049 501.504 104.817 502.378 104.351 503.115C103.886 503.853 103.212 504.422 102.332 504.823C101.458 505.224 100.409 505.425 99.1841 505.425ZM116.458 495.359V497.884H108.68V495.359H116.458ZM118.756 495.359V511H115.534V495.359H118.756ZM108.272 495.359H111.484L111.086 503.212C111.029 504.386 110.918 505.407 110.753 506.273C110.596 507.14 110.381 507.878 110.109 508.486C109.837 509.088 109.5 509.575 109.099 509.947C108.705 510.312 108.24 510.581 107.703 510.753C107.166 510.918 106.553 511 105.866 511H105.071V508.486L105.479 508.454C105.83 508.418 106.138 508.325 106.403 508.175C106.668 508.024 106.893 507.799 107.08 507.498C107.273 507.197 107.431 506.814 107.552 506.349C107.681 505.876 107.781 505.299 107.853 504.619C107.932 503.939 107.986 503.144 108.014 502.234L108.272 495.359ZM132.055 508.486V511H123.73V508.486H132.055ZM124.783 495.359V511H121.56V495.359H124.783ZM130.97 501.729V504.179H123.73V501.729H130.97ZM132.044 495.359V497.884H123.73V495.359H132.044Z" fill="#FF383D"/>
<path d="M89.9726 400.026C41.2003 400.026 1.6626 439.563 1.6626 488.338C1.6626 537.111 41.2003 576.648 89.9726 576.648V620.262" stroke="#FFD6D7" stroke-width="2.4" stroke-miterlimit="10"/>
<path d="M97.4328 622.545C97.4328 618.533 94.1822 615.283 90.1705 615.283C86.1616 615.283 82.9083 618.533 82.9083 622.545C82.9083 626.556 86.1616 629.807 90.1705 629.807C94.1822 629.807 97.4328 626.556 97.4328 622.545Z" fill="#F2AEB0"/>
<path d="M190.511 503.07H393.822C401.243 503.07 408.246 499.638 412.792 493.772L455.528 438.629C460.074 432.763 467.077 429.331 474.498 429.331H631.721" stroke="#FFB2B1" stroke-width="5" stroke-linejoin="round"/>
<path d="M200.761 503.586C200.761 508.622 196.678 512.704 191.642 512.704C186.606 512.704 182.524 508.622 182.524 503.586C182.524 498.55 186.606 494.468 191.642 494.468C196.678 494.468 200.761 498.55 200.761 503.586Z" fill="#FF383D"/>
<path opacity="0.13" d="M1160 700.366C1160 661.356 1128.38 629.732 1089.37 629.732C1050.36 629.732 1018.74 661.356 1018.74 700.366C1018.74 739.376 1050.36 771 1089.37 771C1128.38 771 1160 739.376 1160 700.366Z" fill="#FF383D"/>
<path d="M1062.18 709.486V712H1050.91V709.486H1062.18ZM1051.87 709.486V715.835H1048.84L1048.66 709.486H1051.87ZM1064.5 709.486L1064.22 715.846H1061.27V709.486H1064.5ZM1060.41 696.359V698.884H1052.88V696.359H1060.41ZM1062.7 696.359V712H1059.49V696.359H1062.7ZM1052.48 696.359H1055.7L1055.28 702.729C1055.22 703.782 1055.1 704.713 1054.94 705.522C1054.78 706.325 1054.59 707.03 1054.36 707.639C1054.14 708.247 1053.89 708.781 1053.62 709.239C1053.34 709.69 1053.06 710.084 1052.76 710.421C1052.46 710.75 1052.15 711.044 1051.84 711.302C1051.54 711.552 1051.24 711.785 1050.94 712H1049.09V709.486H1049.81C1050.02 709.314 1050.24 709.078 1050.47 708.777C1050.71 708.477 1050.93 708.072 1051.14 707.563C1051.35 707.048 1051.54 706.396 1051.69 705.608C1051.86 704.821 1051.98 703.861 1052.06 702.729L1052.48 696.359ZM1072.25 706.425H1068.27V703.911H1072.25C1072.87 703.911 1073.37 703.811 1073.76 703.61C1074.14 703.403 1074.43 703.116 1074.61 702.751C1074.79 702.386 1074.88 701.974 1074.88 701.516C1074.88 701.05 1074.79 700.617 1074.61 700.216C1074.43 699.815 1074.14 699.493 1073.76 699.249C1073.37 699.006 1072.87 698.884 1072.25 698.884H1069.39V712H1066.16V696.359H1072.25C1073.48 696.359 1074.53 696.581 1075.4 697.025C1076.28 697.462 1076.96 698.067 1077.42 698.841C1077.89 699.614 1078.12 700.499 1078.12 701.494C1078.12 702.504 1077.89 703.378 1077.42 704.115C1076.96 704.853 1076.28 705.422 1075.4 705.823C1074.53 706.224 1073.48 706.425 1072.25 706.425ZM1093.19 703.814V704.556C1093.19 705.744 1093.03 706.812 1092.71 707.757C1092.39 708.702 1091.93 709.508 1091.34 710.174C1090.76 710.833 1090.05 711.338 1089.24 711.688C1088.43 712.039 1087.53 712.215 1086.54 712.215C1085.56 712.215 1084.66 712.039 1083.85 711.688C1083.04 711.338 1082.33 710.833 1081.74 710.174C1081.15 709.508 1080.68 708.702 1080.35 707.757C1080.03 706.812 1079.87 705.744 1079.87 704.556V703.814C1079.87 702.618 1080.03 701.551 1080.35 700.613C1080.68 699.668 1081.13 698.862 1081.72 698.196C1082.31 697.53 1083.01 697.022 1083.82 696.671C1084.64 696.32 1085.54 696.145 1086.52 696.145C1087.51 696.145 1088.41 696.32 1089.22 696.671C1090.03 697.022 1090.73 697.53 1091.32 698.196C1091.92 698.862 1092.37 699.668 1092.7 700.613C1093.03 701.551 1093.19 702.618 1093.19 703.814ZM1089.94 704.556V703.793C1089.94 702.962 1089.86 702.232 1089.71 701.602C1089.56 700.971 1089.34 700.441 1089.04 700.012C1088.75 699.582 1088.39 699.26 1087.97 699.045C1087.55 698.823 1087.06 698.712 1086.52 698.712C1085.98 698.712 1085.49 698.823 1085.07 699.045C1084.65 699.26 1084.3 699.582 1084.01 700.012C1083.72 700.441 1083.5 700.971 1083.35 701.602C1083.2 702.232 1083.13 702.962 1083.13 703.793V704.556C1083.13 705.379 1083.2 706.11 1083.35 706.747C1083.5 707.377 1083.72 707.911 1084.02 708.348C1084.31 708.777 1084.67 709.103 1085.09 709.325C1085.51 709.547 1086 709.658 1086.54 709.658C1087.09 709.658 1087.57 709.547 1087.99 709.325C1088.41 709.103 1088.77 708.777 1089.06 708.348C1089.34 707.911 1089.56 707.377 1089.71 706.747C1089.86 706.11 1089.94 705.379 1089.94 704.556ZM1100.25 705.555L1094.29 696.359H1098.29L1101.8 702.697H1104.51L1104.09 705.555H1100.25ZM1101.77 705.061L1098.07 712H1094.05L1099.17 703.191L1101.77 705.061ZM1106.62 696.359V712H1103.42V696.359H1106.62ZM1115.62 696.359L1109.74 705.555H1105.92L1105.5 702.697H1108.2L1111.61 696.359H1115.62ZM1111.84 712L1108.22 705.061L1110.83 703.191L1115.86 712H1111.84ZM1119.36 702.063H1123.01C1124.24 702.063 1125.3 702.268 1126.19 702.676C1127.08 703.084 1127.76 703.657 1128.24 704.395C1128.72 705.132 1128.96 705.992 1128.96 706.973C1128.96 707.717 1128.83 708.398 1128.55 709.014C1128.28 709.622 1127.88 710.152 1127.36 710.604C1126.85 711.048 1126.22 711.391 1125.49 711.635C1124.76 711.878 1123.93 712 1123.01 712H1117.25V696.359H1120.49V709.486H1123.01C1123.63 709.486 1124.14 709.372 1124.54 709.143C1124.94 708.913 1125.24 708.609 1125.44 708.229C1125.65 707.843 1125.75 707.417 1125.75 706.951C1125.75 706.507 1125.65 706.106 1125.44 705.748C1125.24 705.383 1124.94 705.096 1124.54 704.889C1124.14 704.681 1123.63 704.577 1123.01 704.577H1119.36V702.063Z" fill="#FA5652"/>
<path d="M1089.87 613.801C1041.1 613.801 1001.56 653.339 1001.56 702.111C1001.56 750.886 1041.1 790.424 1089.87 790.424V834.035" stroke="#FFD6D7" stroke-width="2.4" stroke-miterlimit="10"/>
<path d="M1097.13 836.239C1097.13 832.227 1093.88 828.976 1089.86 828.976C1085.85 828.976 1082.6 832.227 1082.6 836.239C1082.6 840.248 1085.85 843.501 1089.86 843.501C1093.88 843.501 1097.13 840.248 1097.13 836.239Z" fill="#F2AEB0"/>
<path d="M725.738 754.401H816.846C824.124 754.401 831.009 751.098 835.564 745.421L861.096 713.605C865.651 707.929 872.536 704.626 879.814 704.626H973.995" stroke="#FFA6A6" stroke-width="5" stroke-linejoin="round"/>
<path d="M979.943 703.913C979.943 708.949 975.861 713.031 970.825 713.031C965.789 713.031 961.706 708.949 961.706 703.913C961.706 698.876 965.789 694.794 970.825 694.794C975.861 694.794 979.943 698.876 979.943 703.913Z" fill="#FF383D"/>
<path opacity="0.15" d="M1160 214.366C1160 175.356 1128.38 143.732 1089.37 143.732C1050.36 143.732 1018.73 175.356 1018.73 214.366C1018.73 253.376 1050.36 285 1089.37 285C1128.38 285 1160 253.376 1160 214.366Z" fill="#FF383D"/>
<path d="M1047.48 198.781V201.076H1041.07V213H1038.15V198.781H1047.48ZM1060.31 205.559V206.232C1060.31 207.313 1060.16 208.283 1059.87 209.143C1059.58 210.002 1059.16 210.734 1058.63 211.34C1058.1 211.939 1057.46 212.398 1056.71 212.717C1055.98 213.036 1055.16 213.195 1054.26 213.195C1053.37 213.195 1052.55 213.036 1051.81 212.717C1051.08 212.398 1050.44 211.939 1049.9 211.34C1049.36 210.734 1048.94 210.002 1048.64 209.143C1048.35 208.283 1048.2 207.313 1048.2 206.232V205.559C1048.2 204.471 1048.35 203.501 1048.64 202.648C1048.93 201.789 1049.35 201.057 1049.88 200.451C1050.42 199.846 1051.06 199.383 1051.79 199.064C1052.54 198.745 1053.35 198.586 1054.24 198.586C1055.14 198.586 1055.96 198.745 1056.7 199.064C1057.44 199.383 1058.08 199.846 1058.61 200.451C1059.15 201.057 1059.57 201.789 1059.86 202.648C1060.16 203.501 1060.31 204.471 1060.31 205.559ZM1057.35 206.232V205.539C1057.35 204.784 1057.28 204.12 1057.14 203.547C1057.01 202.974 1056.81 202.492 1056.54 202.102C1056.27 201.711 1055.95 201.418 1055.56 201.223C1055.18 201.021 1054.74 200.92 1054.24 200.92C1053.75 200.92 1053.31 201.021 1052.93 201.223C1052.55 201.418 1052.23 201.711 1051.96 202.102C1051.7 202.492 1051.5 202.974 1051.36 203.547C1051.23 204.12 1051.16 204.784 1051.16 205.539V206.232C1051.16 206.981 1051.23 207.645 1051.36 208.225C1051.5 208.798 1051.7 209.283 1051.97 209.68C1052.24 210.07 1052.56 210.367 1052.95 210.568C1053.33 210.77 1053.77 210.871 1054.26 210.871C1054.76 210.871 1055.2 210.77 1055.58 210.568C1055.97 210.367 1056.29 210.07 1056.55 209.68C1056.81 209.283 1057.01 208.798 1057.14 208.225C1057.28 207.645 1057.35 206.981 1057.35 206.232ZM1071.59 198.781V201.076H1064.52V198.781H1071.59ZM1073.68 198.781V213H1070.75V198.781H1073.68ZM1064.15 198.781H1067.07L1066.71 205.92C1066.65 206.988 1066.55 207.915 1066.4 208.703C1066.26 209.491 1066.06 210.161 1065.82 210.715C1065.57 211.262 1065.26 211.704 1064.9 212.043C1064.54 212.375 1064.12 212.619 1063.63 212.775C1063.14 212.925 1062.58 213 1061.96 213H1061.24V210.715L1061.61 210.686C1061.93 210.653 1062.21 210.568 1062.45 210.432C1062.69 210.295 1062.89 210.09 1063.06 209.816C1063.24 209.543 1063.38 209.195 1063.49 208.771C1063.61 208.342 1063.7 207.818 1063.77 207.199C1063.84 206.581 1063.89 205.858 1063.91 205.031L1064.15 198.781ZM1087.91 205.559V206.232C1087.91 207.313 1087.76 208.283 1087.47 209.143C1087.17 210.002 1086.76 210.734 1086.23 211.34C1085.69 211.939 1085.05 212.398 1084.31 212.717C1083.58 213.036 1082.76 213.195 1081.86 213.195C1080.97 213.195 1080.15 213.036 1079.41 212.717C1078.67 212.398 1078.04 211.939 1077.5 211.34C1076.96 210.734 1076.54 210.002 1076.24 209.143C1075.94 208.283 1075.8 207.313 1075.8 206.232V205.559C1075.8 204.471 1075.94 203.501 1076.24 202.648C1076.53 201.789 1076.94 201.057 1077.48 200.451C1078.02 199.846 1078.65 199.383 1079.39 199.064C1080.13 198.745 1080.95 198.586 1081.84 198.586C1082.74 198.586 1083.56 198.745 1084.29 199.064C1085.04 199.383 1085.67 199.846 1086.21 200.451C1086.75 201.057 1087.16 201.789 1087.46 202.648C1087.76 203.501 1087.91 204.471 1087.91 205.559ZM1084.95 206.232V205.539C1084.95 204.784 1084.88 204.12 1084.74 203.547C1084.61 202.974 1084.4 202.492 1084.14 202.102C1083.87 201.711 1083.54 201.418 1083.16 201.223C1082.78 201.021 1082.34 200.92 1081.84 200.92C1081.35 200.92 1080.91 201.021 1080.52 201.223C1080.15 201.418 1079.82 201.711 1079.56 202.102C1079.3 202.492 1079.1 202.974 1078.96 203.547C1078.82 204.12 1078.76 204.784 1078.76 205.539V206.232C1078.76 206.981 1078.82 207.645 1078.96 208.225C1079.1 208.798 1079.3 209.283 1079.57 209.68C1079.83 210.07 1080.16 210.367 1080.54 210.568C1080.93 210.77 1081.37 210.871 1081.86 210.871C1082.36 210.871 1082.8 210.77 1083.18 210.568C1083.56 210.367 1083.89 210.07 1084.15 209.68C1084.41 209.283 1084.61 208.798 1084.74 208.225C1084.88 207.645 1084.95 206.981 1084.95 206.232ZM1095.58 206.76H1091.93L1091.91 204.748H1094.98C1095.52 204.748 1095.96 204.68 1096.3 204.543C1096.65 204.4 1096.91 204.195 1097.08 203.928C1097.25 203.654 1097.34 203.322 1097.34 202.932C1097.34 202.489 1097.26 202.131 1097.09 201.857C1096.92 201.584 1096.67 201.385 1096.31 201.262C1095.97 201.138 1095.52 201.076 1094.98 201.076H1092.95V213H1090.02V198.781H1094.98C1095.8 198.781 1096.54 198.859 1097.19 199.016C1097.85 199.172 1098.41 199.41 1098.86 199.729C1099.32 200.048 1099.67 200.451 1099.91 200.939C1100.15 201.421 1100.27 201.994 1100.27 202.658C1100.27 203.244 1100.14 203.785 1099.87 204.279C1099.61 204.774 1099.2 205.178 1098.63 205.49C1098.07 205.803 1097.34 205.975 1096.43 206.008L1095.58 206.76ZM1095.46 213H1091.13L1092.27 210.715H1095.46C1095.97 210.715 1096.39 210.633 1096.71 210.471C1097.04 210.301 1097.28 210.074 1097.44 209.787C1097.59 209.501 1097.67 209.172 1097.67 208.801C1097.67 208.384 1097.6 208.023 1097.46 207.717C1097.32 207.411 1097.1 207.176 1096.79 207.014C1096.49 206.844 1096.08 206.76 1095.58 206.76H1092.76L1092.78 204.748H1096.29L1096.97 205.539C1097.83 205.526 1098.53 205.679 1099.06 205.998C1099.59 206.311 1099.98 206.717 1100.22 207.219C1100.47 207.72 1100.59 208.257 1100.59 208.83C1100.59 209.742 1100.39 210.51 1100 211.135C1099.6 211.753 1099.02 212.219 1098.25 212.531C1097.49 212.844 1096.56 213 1095.46 213ZM1112.27 204.572V206.857H1104.85V204.572H1112.27ZM1105.72 198.781V213H1102.79V198.781H1105.72ZM1114.36 198.781V213H1111.44V198.781H1114.36ZM1122.87 201.213L1119 213H1115.88L1121.17 198.781H1123.15L1122.87 201.213ZM1126.08 213L1122.2 201.213L1121.89 198.781H1123.89L1129.21 213H1126.08ZM1125.9 207.707V210.002H1118.39V207.707H1125.9ZM1138.08 207.834H1134.21L1133.23 207.424C1132.12 207.072 1131.26 206.545 1130.67 205.842C1130.08 205.139 1129.79 204.243 1129.79 203.156C1129.79 202.199 1130 201.398 1130.43 200.754C1130.86 200.103 1131.46 199.611 1132.24 199.279C1133.03 198.947 1133.96 198.781 1135.04 198.781H1140.01V213H1137.07V201.076H1135.04C1134.24 201.076 1133.65 201.275 1133.28 201.672C1132.9 202.069 1132.71 202.632 1132.71 203.361C1132.71 203.895 1132.8 204.335 1132.97 204.68C1133.15 205.018 1133.41 205.272 1133.75 205.441C1134.08 205.604 1134.51 205.686 1135.03 205.686H1138.07L1138.08 207.834ZM1135.26 206.652L1132.11 213H1128.93L1132.1 206.652H1135.26ZM1073.25 226.781V229.076H1066.85V241H1063.93V226.781H1073.25ZM1065.85 231.967H1069.17C1070.29 231.967 1071.25 232.152 1072.06 232.523C1072.86 232.895 1073.49 233.415 1073.92 234.086C1074.36 234.757 1074.58 235.538 1074.58 236.43C1074.58 237.107 1074.45 237.725 1074.21 238.285C1073.96 238.839 1073.6 239.32 1073.12 239.73C1072.65 240.134 1072.09 240.447 1071.42 240.668C1070.76 240.889 1070.01 241 1069.17 241H1063.93V226.781H1066.87V238.715H1069.17C1069.73 238.715 1070.19 238.611 1070.55 238.402C1070.92 238.194 1071.19 237.917 1071.37 237.572C1071.56 237.221 1071.66 236.833 1071.66 236.41C1071.66 236.007 1071.56 235.642 1071.37 235.316C1071.19 234.984 1070.92 234.724 1070.55 234.535C1070.19 234.346 1069.73 234.252 1069.17 234.252H1065.85V231.967ZM1088.17 233.559V234.232C1088.17 235.313 1088.02 236.283 1087.73 237.143C1087.44 238.002 1087.02 238.734 1086.49 239.34C1085.96 239.939 1085.32 240.398 1084.58 240.717C1083.84 241.036 1083.02 241.195 1082.12 241.195C1081.23 241.195 1080.42 241.036 1079.67 240.717C1078.94 240.398 1078.3 239.939 1077.76 239.34C1077.22 238.734 1076.8 238.002 1076.5 237.143C1076.21 236.283 1076.06 235.313 1076.06 234.232V233.559C1076.06 232.471 1076.21 231.501 1076.5 230.648C1076.79 229.789 1077.21 229.057 1077.74 228.451C1078.28 227.846 1078.92 227.383 1079.65 227.064C1080.4 226.745 1081.21 226.586 1082.11 226.586C1083 226.586 1083.82 226.745 1084.56 227.064C1085.3 227.383 1085.94 227.846 1086.47 228.451C1087.01 229.057 1087.43 229.789 1087.72 230.648C1088.02 231.501 1088.17 232.471 1088.17 233.559ZM1085.21 234.232V233.539C1085.21 232.784 1085.14 232.12 1085.01 231.547C1084.87 230.974 1084.67 230.492 1084.4 230.102C1084.13 229.711 1083.81 229.418 1083.42 229.223C1083.04 229.021 1082.6 228.92 1082.11 228.92C1081.61 228.92 1081.17 229.021 1080.79 229.223C1080.41 229.418 1080.09 229.711 1079.82 230.102C1079.56 230.492 1079.36 230.974 1079.22 231.547C1079.09 232.12 1079.02 232.784 1079.02 233.539V234.232C1079.02 234.981 1079.09 235.645 1079.22 236.225C1079.36 236.798 1079.56 237.283 1079.83 237.68C1080.1 238.07 1080.42 238.367 1080.81 238.568C1081.19 238.77 1081.63 238.871 1082.12 238.871C1082.62 238.871 1083.06 238.77 1083.44 238.568C1083.83 238.367 1084.15 238.07 1084.41 237.68C1084.67 237.283 1084.87 236.798 1085.01 236.225C1085.14 235.645 1085.21 234.981 1085.21 234.232ZM1099.45 226.781V229.076H1092.38V226.781H1099.45ZM1101.54 226.781V241H1098.61V226.781H1101.54ZM1092.01 226.781H1094.93L1094.57 233.92C1094.51 234.988 1094.41 235.915 1094.26 236.703C1094.12 237.491 1093.93 238.161 1093.68 238.715C1093.43 239.262 1093.12 239.704 1092.76 240.043C1092.4 240.375 1091.98 240.619 1091.49 240.775C1091 240.925 1090.45 241 1089.82 241H1089.1V238.715L1089.47 238.686C1089.79 238.653 1090.07 238.568 1090.31 238.432C1090.55 238.295 1090.75 238.09 1090.92 237.816C1091.1 237.543 1091.24 237.195 1091.35 236.771C1091.47 236.342 1091.56 235.818 1091.63 235.199C1091.7 234.581 1091.75 233.858 1091.77 233.031L1092.01 226.781ZM1105.98 231.967H1109.3C1110.42 231.967 1111.39 232.152 1112.19 232.523C1113 232.895 1113.62 233.415 1114.06 234.086C1114.49 234.757 1114.71 235.538 1114.71 236.43C1114.71 237.107 1114.59 237.725 1114.34 238.285C1114.09 238.839 1113.73 239.32 1113.26 239.73C1112.79 240.134 1112.22 240.447 1111.56 240.668C1110.89 240.889 1110.14 241 1109.3 241H1104.07V226.781H1107.01V238.715H1109.3C1109.86 238.715 1110.32 238.611 1110.69 238.402C1111.05 238.194 1111.33 237.917 1111.51 237.572C1111.7 237.221 1111.79 236.833 1111.79 236.41C1111.79 236.007 1111.7 235.642 1111.51 235.316C1111.33 234.984 1111.05 234.724 1110.69 234.535C1110.32 234.346 1109.86 234.252 1109.3 234.252H1105.98V231.967Z" fill="#FF383D"/>
<path d="M1089.87 127.65C1041.1 127.65 1001.56 167.187 1001.56 215.96C1001.56 264.732 1041.1 304.272 1089.87 304.272V347.883" stroke="#FFD6D7" stroke-width="2.4" stroke-miterlimit="10"/>
<path d="M1097.13 350.087C1097.13 346.075 1093.88 342.825 1089.87 342.825C1085.86 342.825 1082.61 346.075 1082.61 350.087C1082.61 354.099 1085.86 357.349 1089.87 357.349C1093.88 357.349 1097.13 354.099 1097.13 350.087Z" fill="#F2AEB0"/>
<path d="M975.839 222.859H849.559C843.442 222.859 837.555 225.195 833.102 229.39L804.567 256.271C800.114 260.466 794.228 262.802 788.11 262.802H674.12" stroke="#FFB2B1" stroke-width="5" stroke-linejoin="round"/>
<path d="M979.941 222.146C979.941 227.182 975.859 231.264 970.822 231.264C965.786 231.264 961.704 227.182 961.704 222.146C961.704 217.11 965.786 213.027 970.822 213.027C975.859 213.027 979.941 217.11 979.941 222.146Z" fill="#FF383D"/>
<defs>
<filter id="filter0_d_203_182" x="25.9244" y="725.145" width="111.772" height="19.7012" filterUnits="userSpaceOnUse" color-interpolation-filters="sRGB">
<feFlood flood-opacity="0" result="BackgroundImageFix"/>
<feColorMatrix in="SourceAlpha" type="matrix" values="0 0 0 0 0 0 0 0 0 0 0 0 0 0 0 0 0 0 127 0" result="hardAlpha"/>
<feOffset/>
<feColorMatrix type="matrix" values="0 0 0 0 0 0 0 0 0 0 0 0 0 0 0 0 0 0 0.1 0"/>
<feBlend mode="normal" in2="BackgroundImageFix" result="effect1_dropShadow_203_182"/>
<feBlend mode="normal" in="SourceGraphic" in2="effect1_dropShadow_203_182" result="shape"/>
</filter>
<linearGradient id="paint0_linear_203_182" x1="279.615" y1="651.802" x2="343.866" y2="780.175" gradientUnits="userSpaceOnUse">
<stop stop-color="#FFC8C8"/>
<stop offset="1" stop-color="#FFF2F5"/>
</linearGradient>
<linearGradient id="paint1_linear_203_182" x1="911.18" y1="248.499" x2="389.511" y2="38.2372" gradientUnits="userSpaceOnUse">
<stop stop-color="white"/>
<stop offset="1" stop-color="#FFD5D5"/>
</linearGradient>
<linearGradient id="paint2_linear_203_182" x1="843.946" y1="153.536" x2="682.873" y2="126.967" gradientUnits="userSpaceOnUse">
<stop stop-color="#FFD3D3"/>
<stop offset="1" stop-color="#FFF6F6"/>
</linearGradient>
<linearGradient id="paint3_linear_203_182" x1="205.431" y1="428.025" x2="962.765" y2="428.025" gradientUnits="userSpaceOnUse">
<stop stop-color="#FFF8F5"/>
<stop offset="1" stop-color="#FFDEDE"/>
</linearGradient>
<linearGradient id="paint4_linear_203_182" x1="893.009" y1="609.534" x2="694.623" y2="627.818" gradientUnits="userSpaceOnUse">
<stop stop-color="#FFC2C2"/>
<stop offset="1" stop-color="white"/>
</linearGradient>
</defs>
</svg>
