<svg preserveAspectRatio="none" width="100%" height="100%" overflow="visible" style="display: block;" viewBox="0 0 168 42" fill="none" xmlns="http://www.w3.org/2000/svg">
<g id="Vector">
<path d="M25.5293 9.51482C26.0554 9.16962 26.2307 8.73813 26.2307 8.22034C26.2307 7.70255 25.9677 7.35736 25.5293 7.09847C25.091 6.83957 24.4772 6.75326 23.8635 6.75326C23.1621 6.75326 22.4607 7.01216 21.847 7.27106C21.584 7.44365 21.2333 7.61626 20.9703 7.78885C20.6196 7.78885 20.2689 7.78884 19.8305 7.70254C18.6907 7.52995 17.6386 7.44366 16.8496 7.44366C16.0605 7.44366 15.1838 7.44366 14.2193 7.44366C12.0275 7.61626 10.0986 8.04775 8.43284 8.82443C6.76703 9.60112 5.53958 10.5504 4.75052 11.7586C3.96145 12.9668 3.52308 14.2612 3.61075 15.7283C3.69843 17.1091 4.22447 18.231 5.10121 19.0076C6.06563 19.7843 7.11772 20.1295 8.43284 20.1295C9.30958 20.1295 10.0986 19.7843 10.8 19.3528C11.5014 18.9213 11.9398 18.4036 12.2905 17.7132C12.6412 17.1091 12.8166 16.505 12.7289 15.9872C12.7289 15.7283 12.7289 15.4694 12.5535 15.3831C12.4659 15.2968 12.3782 15.2105 12.2028 15.2105C12.1152 15.2105 12.0275 15.2105 11.8521 15.3831C11.3261 15.9009 10.8 16.1598 10.0987 16.1598C9.48493 16.1598 9.04656 15.9872 8.60818 15.642C8.16981 15.2105 7.99447 14.6927 7.90679 14.0023C7.90679 13.2257 8.08214 12.449 8.60818 11.7586C9.13423 11.0682 9.9233 10.4641 10.8877 10.0326C11.8521 9.60112 12.9919 9.34223 14.307 9.25593C15.1838 9.25593 15.9728 9.25593 16.7619 9.25593C17.3756 9.25593 18.077 9.42851 18.8661 9.60111C18.1647 10.3778 17.551 11.3271 16.9372 12.4489C16.1482 14.1749 15.4468 16.0735 15.0084 18.0584C14.4824 20.0432 13.9563 22.6322 13.3426 25.8252C12.7289 29.0182 12.2028 31.5209 11.6768 33.3332C11.2384 35.1454 10.6247 36.6988 9.83563 37.907C9.04656 39.2015 8.08214 39.8056 6.94237 39.8919C6.1533 39.8919 5.53959 39.7192 5.10121 39.2015C4.66284 38.6837 4.39982 37.907 4.31215 36.9577C4.31215 35.7495 4.48749 34.4551 5.10121 33.1606C5.71493 31.7798 6.59168 30.6579 7.73144 29.7086L8.34517 29.2771C8.43284 29.1908 8.60818 29.1046 8.69586 29.0183C8.78353 29.0183 8.87121 28.8456 8.87121 28.7593C8.87121 28.5005 8.69586 28.3279 8.43284 28.1553C8.16982 27.9827 7.81912 27.9827 7.38074 27.9827C6.24098 27.9827 5.01354 28.5005 3.87377 29.3634C2.64633 30.2264 1.68192 31.3483 0.980527 32.6428C0.191459 33.9373 -0.0715626 35.318 0.0161116 36.6988C0.103786 38.3385 0.717503 39.633 1.94494 40.6685C3.08471 41.7041 4.66285 42.1356 6.59168 41.963C9.30958 41.7904 11.5014 40.7548 13.0796 38.77C14.6577 36.7851 15.7975 34.455 16.5865 31.7798C17.2879 29.1045 17.9893 25.6526 18.6907 21.424C19.1291 18.835 19.4798 16.7639 19.8305 15.2968C20.1812 13.8297 20.6196 12.449 21.0579 11.2408C21.2333 10.8093 21.4963 10.3778 21.6717 10.0326C21.6717 10.0326 21.7593 10.0326 21.847 10.0326C22.373 10.0326 22.8991 10.1189 23.4251 10.0326C24.2142 10.0326 24.9156 9.7737 25.354 9.4285L25.5293 9.51482Z" fill="var(--fill-0, black)"/>
<path d="M46.9218 21.2514C46.4835 20.7336 46.1328 20.3021 45.8697 19.8706C46.0451 19.698 46.2204 19.4391 46.3958 19.1802C46.9218 18.3173 47.0972 17.4543 47.0972 16.7639C47.0972 16.2461 46.9218 15.9009 46.6588 15.5557C46.3958 15.2105 45.9574 15.1242 45.4314 15.1242C44.6423 15.1242 43.9409 15.5557 43.5025 16.3324C42.9765 17.0228 42.8011 17.8858 42.8011 18.7488C42.8011 19.2665 42.9765 19.698 43.1518 20.1295C43.4149 20.6473 43.6779 21.2514 44.2039 22.1144C44.73 22.9774 45.0807 23.6678 45.3437 24.2718C45.6067 24.8759 45.7821 25.48 45.7821 26.0841C45.7821 26.9471 45.6944 27.6375 45.256 28.1553C44.9053 28.6731 44.3793 29.0183 43.7656 29.0183C43.3272 29.0183 42.8888 28.932 42.6258 28.6731C42.2751 28.4142 42.0998 27.9827 42.0998 27.5512C42.0998 27.0334 42.1874 26.5156 42.5381 26.1704C42.8888 25.7389 43.2395 25.48 43.6779 25.3937H43.9409C44.1163 25.3937 44.2039 25.3074 44.2916 25.2211C44.2916 25.2211 44.2916 25.0485 44.2916 24.9622C44.2916 24.5307 44.0286 24.1855 43.6779 23.754C43.3272 23.4088 42.8888 23.2362 42.2751 23.2362C41.7491 23.2362 41.223 23.4952 40.697 23.8404C40.5216 23.9267 40.4339 24.0992 40.3463 24.1855C40.3463 24.1855 40.3463 24.0129 40.2586 23.9266C40.1709 23.8404 40.0832 23.7541 39.9956 23.8404C39.8202 23.8404 39.6449 23.9267 39.4695 24.1855C38.5051 25.8252 37.716 26.8608 37.0146 27.5512C36.4009 28.1553 35.7872 28.5005 35.1735 28.5005C34.8228 28.5005 34.5598 28.4142 34.2967 28.1553C34.0337 27.8964 33.9461 27.4649 33.8584 26.8608C33.8584 26.6019 33.8584 26.343 33.8584 25.9978C34.0337 25.7389 34.2967 25.3937 34.5598 24.9622C34.9981 24.1855 35.4365 23.4088 35.7872 22.4596C36.1379 21.5966 36.2256 20.7336 36.2256 20.0432C36.2256 19.3528 35.9626 18.835 35.6995 18.5761C35.3488 18.3172 34.9981 18.1447 34.5598 18.1447C33.946 18.1447 33.3323 18.4898 32.8063 19.0939C32.2802 19.698 31.8419 20.561 31.4912 21.5966C31.1405 22.6322 30.8775 23.6678 30.7021 24.7896C30.5268 25.8252 30.4391 26.6882 30.5268 27.4649C29.65 28.5004 28.7733 29.1045 27.9842 29.1908C27.5458 29.1908 27.1951 29.1046 26.9321 28.8457C26.6691 28.5868 26.4937 27.9827 26.4061 27.206C26.4061 26.4293 26.4061 25.6526 26.6691 24.7033C26.8444 23.8404 27.1951 22.8048 27.8089 21.6829C27.9842 21.424 28.0719 21.1651 28.2472 20.9062C28.3349 20.6473 28.5102 20.4747 28.5979 20.2158C28.5979 20.0432 28.6856 19.7843 28.6856 19.6117C28.6856 19.0939 28.4226 18.6624 28.0719 18.4035C27.7212 18.0583 27.1951 17.8857 26.6691 17.972C26.0554 17.972 25.5293 18.4035 25.091 19.0939C24.6526 19.7843 24.2142 20.7336 23.8635 21.8555C23.5128 22.8048 23.2498 23.8403 23.1621 24.9622C22.9868 25.9978 22.9868 27.0334 22.9868 27.8101C22.9868 29.1046 23.4251 30.0539 24.0389 30.8305C24.6526 31.5209 25.617 31.8661 26.7568 31.7798C27.8965 31.7798 29.0363 31.1757 30.0884 30.2264C30.3514 29.9675 30.7021 29.6223 30.9651 29.2771C31.1405 29.7086 31.3158 30.0538 31.5788 30.399C32.1926 31.0894 32.894 31.3483 33.8584 31.3483C34.9105 31.3483 35.9626 30.7442 37.1023 29.7949C37.8914 29.1046 38.5928 28.069 39.3819 26.8608C39.3819 27.0334 39.3819 27.206 39.3819 27.3786C39.3819 27.9827 39.6449 28.5868 39.9956 29.1046C40.3463 29.6223 40.8723 30.1401 41.486 30.4853C42.1874 30.8305 42.8888 31.0031 43.8532 30.9168C44.993 30.9168 45.9574 30.5716 46.8342 30.0538C47.7109 29.536 48.3246 28.9319 48.763 28.069C49.2014 27.2923 49.3767 26.4293 49.289 25.48C49.289 24.7033 49.026 24.013 48.6753 23.4089C48.3246 22.8048 47.7986 22.1144 47.0972 21.3377L46.9218 21.2514Z" fill="var(--fill-0, black)"/>
<path d="M61.0374 15.2968H60.862C60.862 15.2968 60.7744 15.3831 60.6867 15.4694C60.336 15.9009 59.81 16.2461 59.1962 16.5913C58.6702 16.8502 57.9688 17.1091 57.1797 17.368C57.7934 15.5557 58.3195 13.916 59.0209 12.6216C59.2839 12.1038 59.6346 11.4997 59.9853 10.9819C60.073 10.8093 60.1607 10.6367 60.2483 10.4641C60.2483 10.2915 60.336 10.2052 60.336 10.1189C60.336 9.68742 60.073 9.25591 59.7223 8.99702C59.3716 8.73812 58.9332 8.56553 58.4072 8.56553C57.8811 8.56553 57.3551 8.91071 56.9167 9.4285C56.4783 10.0326 56.04 10.723 55.6016 11.6723C54.7248 13.6571 54.1111 15.7283 53.5851 17.8858C53.5851 17.8858 53.4097 17.8858 53.3221 17.8858C52.796 17.8858 52.3576 17.8858 51.9193 17.7132H51.6562C51.5686 17.7132 51.4809 17.7132 51.4809 17.7995C51.4809 17.8858 51.4809 17.9721 51.4809 18.0584C51.4809 18.5761 51.8316 19.0076 52.533 19.3528C52.796 19.5254 52.9714 19.5254 53.2344 19.6117C52.796 21.9418 52.533 23.9266 52.7083 25.7389C52.7083 27.1197 53.1467 28.1553 53.7604 28.8457C54.3742 29.536 55.2509 29.8812 56.2153 29.7949C57.1797 29.7949 58.0565 29.4497 58.6702 28.8457C59.2839 28.2416 59.81 27.6375 60.1607 26.8608C60.1607 26.6882 60.2483 26.5156 60.336 26.343C60.336 26.0841 60.336 25.9115 60.336 25.8252C60.336 25.48 60.2483 25.3937 59.9853 25.3937C59.8976 25.3937 59.7223 25.48 59.6346 25.7389L59.4593 25.9978C59.1086 26.4293 58.8455 26.7745 58.5825 26.9471C58.3195 27.1197 58.0565 27.2923 57.7058 27.2923C57.2674 27.2923 56.9167 27.1197 56.6537 26.7745C56.3907 26.343 56.2153 25.7389 56.1276 24.8759C56.04 23.3225 56.1276 21.6829 56.4783 20.0432C58.3195 19.8706 59.7223 19.5254 60.599 18.9213C61.5634 18.3172 62.0018 17.4543 62.0018 16.5913C62.0018 16.1598 61.8265 15.8146 61.6511 15.642C61.4758 15.4694 61.3004 15.2968 61.0374 15.2968Z" fill="var(--fill-0, black)"/>
<path d="M91.1097 20.9062C91.022 20.9062 90.9343 20.8199 90.759 20.8199C90.5836 20.8199 90.4083 20.9062 90.2329 21.1651C89.2685 22.8048 88.3918 23.9266 87.6904 24.617C86.989 25.3074 86.2876 25.6526 85.7615 25.6526C85.3232 25.6526 84.9725 25.48 84.7095 25.0485C84.4464 24.617 84.2711 23.9267 84.1834 23.0637C84.9725 22.0281 85.6739 20.8199 86.4629 19.4391C87.8657 16.8502 89.0055 14.1749 89.8822 11.4997C90.759 8.82441 91.1097 6.75327 91.022 5.28619C91.022 4.42321 90.759 3.73283 90.3206 3.12874C89.8822 2.52465 89.3562 2.26575 88.5671 2.26575C87.1643 2.35205 85.7615 3.7328 84.5341 6.32175C83.3067 8.82441 82.3422 11.7586 81.6408 14.9516C81.2025 14.779 80.6764 14.6927 80.0627 14.6927C78.7476 14.6927 77.5202 15.2968 76.2927 16.2461C75.0653 17.1954 74.1885 18.4035 73.4872 19.8706C72.7858 21.3377 72.5227 22.8911 72.6104 24.3582C72.6981 25.7389 73.1364 26.8608 74.0132 27.6375C74.8023 28.4142 75.8544 28.7594 76.9941 28.6731C77.9585 28.6731 78.923 28.2416 79.8874 27.6375C80.4134 27.2923 80.9395 26.7745 81.4655 26.1704C81.5532 26.4293 81.6409 26.6882 81.8162 26.8608C82.4299 27.8101 83.219 28.2416 84.1834 28.1553C85.3232 28.1553 86.5506 27.5512 87.6027 26.6019C88.7425 25.6526 89.7946 24.0129 90.9343 21.6829C91.022 21.424 91.1097 21.2514 91.1097 21.0788C91.1097 20.9062 91.1097 20.8199 90.9343 20.7336L91.1097 20.9062ZM84.9725 16.5913C85.4985 14.0023 86.1122 11.6723 86.9013 9.60111C87.6904 7.52995 88.3041 6.49438 88.7425 6.49438C88.9178 6.49438 89.0932 6.49438 89.1808 6.66698C89.2685 6.83958 89.3562 7.01216 89.3562 7.27106C89.3562 8.22034 89.0932 9.7737 88.3918 11.9312C87.6904 14.0886 86.726 16.3324 85.5862 18.5761C85.2355 19.3528 84.7971 20.0432 84.3588 20.7336C84.4464 19.5254 84.6218 18.1447 84.9725 16.5913ZM81.1148 24.7033C80.9395 24.9622 80.6764 25.2211 80.4134 25.3937C79.7997 25.9115 79.2737 26.1704 78.6599 26.1704C78.0462 26.1704 77.5202 25.9978 77.0818 25.48C76.6434 24.9622 76.3804 24.2718 76.3804 23.3226C76.3804 22.2007 76.3804 21.0788 76.8188 20.0432C77.1695 19.0077 77.6078 18.1446 78.2216 17.5406C78.8353 16.9365 79.3613 16.5913 79.8874 16.505C80.5011 16.505 80.8518 16.7639 80.8518 17.4543C80.8518 17.7132 80.8518 18.0584 80.6764 18.3173C80.6764 18.4036 80.5888 18.5761 80.6764 18.6624C80.6764 18.7487 80.8518 18.835 81.1148 18.9213C81.1148 18.9213 81.1148 18.9213 81.2025 18.9213C80.9395 20.561 80.8518 22.0281 80.9395 23.15C80.9395 23.6677 81.1148 24.1855 81.2025 24.617L81.1148 24.7033Z" fill="var(--fill-0, black)"/>
<path d="M101.017 13.3982C100.403 12.9668 99.7018 12.7942 98.9127 12.8804C98.0359 12.8804 97.2469 13.312 96.6331 13.916C96.2824 14.2612 96.0194 14.6927 95.9318 15.2105C95.4934 15.3831 94.9673 15.7283 94.4413 16.2461C93.5646 17.0228 92.7755 18.0583 92.1617 19.2665C91.548 20.4747 91.285 21.7692 91.3727 23.15C91.4604 24.5307 91.9864 25.6526 92.8631 26.5156C93.7399 27.3786 94.9673 27.8101 96.4578 27.7238C97.9483 27.6375 99.2634 27.1197 100.315 26.1704C101.455 25.2211 102.244 24.013 102.77 22.5459C103.296 21.0788 103.559 19.698 103.472 18.231C103.472 17.1091 103.121 16.1598 102.683 15.2968C102.244 14.5201 101.718 13.8297 101.017 13.4845V13.3982ZM100.666 21.9418C100.403 22.8911 99.9648 23.6678 99.4387 24.2718C98.9127 24.8759 98.2113 25.2211 97.5099 25.2211C96.7208 25.2211 96.0194 24.9622 95.4934 24.3582C94.9673 23.6678 94.7043 22.8911 94.6166 21.8555C94.6166 21.0788 94.6166 20.3021 94.8797 19.5254C95.055 18.7488 95.4057 18.0584 95.7564 17.4543C95.7564 17.2817 95.9318 17.1954 96.0194 17.1091C96.1948 17.3679 96.3701 17.6269 96.6331 17.8858C97.1592 18.3173 97.5976 18.5761 98.1236 18.4898C98.299 18.4898 98.4743 18.4899 98.562 18.3173C98.6497 18.231 98.7373 18.1446 98.7373 17.972C98.7373 17.972 98.7373 17.7995 98.6497 17.7132C98.4743 17.5406 98.4743 17.2817 98.3866 17.0228C98.3866 16.6776 98.3866 16.3324 98.562 16.0735C98.7373 15.8146 98.9127 15.7283 99.1757 15.7283C99.6141 15.7283 99.9648 15.9872 100.315 16.505C100.666 17.0228 100.842 17.7995 100.929 18.7488C100.929 19.7843 100.929 20.8199 100.578 21.7692L100.666 21.9418Z" fill="var(--fill-0, black)"/>
<path d="M129.248 18.4898C129.073 18.4898 128.897 18.5761 128.722 18.835C127.758 20.3884 126.793 21.5966 125.741 22.287C124.689 22.9773 123.637 23.4089 122.76 23.4952C121.796 23.4952 121.094 23.2363 120.656 22.5459C120.305 22.0281 120.13 21.3377 119.954 20.6473C121.094 20.4747 122.146 20.1295 123.111 19.698C124.338 19.0939 125.303 18.3173 126.004 17.4543C126.705 16.5913 126.968 15.7283 126.968 14.8653C126.968 14.0886 126.53 13.3982 125.916 12.8804C125.303 12.3627 124.426 12.1901 123.374 12.1901C122.146 12.1901 120.919 12.7941 119.779 13.6571C118.639 14.6064 117.763 15.7283 117.149 17.1091C116.535 18.4898 116.184 19.8706 116.272 21.3377C116.272 22.3733 116.623 23.3226 117.149 24.0129C117.675 24.7033 118.289 25.3074 119.078 25.6526C119.867 25.9978 120.656 26.1704 121.445 26.0841C122.848 25.9978 124.338 25.3937 125.829 24.4444C127.319 23.4088 128.547 21.7692 129.599 19.5254C129.686 19.2665 129.774 19.0939 129.774 18.9213C129.774 18.7487 129.774 18.6624 129.599 18.5761C129.511 18.5761 129.423 18.4898 129.248 18.4898ZM120.218 17.1091C120.568 16.1598 121.007 15.3831 121.533 14.6927C122.059 14.0023 122.585 13.6571 123.111 13.6571C123.286 13.6571 123.549 13.6571 123.637 13.916C123.812 14.0886 123.9 14.3475 123.9 14.779C123.9 15.4694 123.724 16.1598 123.198 16.9365C122.672 17.6269 122.059 18.231 121.182 18.7488C120.744 19.0077 120.305 19.1802 119.867 19.3528C119.867 18.6624 119.954 17.8858 120.218 17.1954V17.1091Z" fill="var(--fill-0, black)"/>
<path d="M145.994 17.4543C145.818 17.4543 145.643 17.5406 145.468 17.7995C144.503 19.4391 143.714 20.4747 143.101 21.0788C142.487 21.6829 141.961 21.9418 141.522 22.0281C141.172 22.0281 140.909 21.7692 140.733 21.2514C140.733 21.1651 140.733 20.9925 140.646 20.8199C141.084 20.1295 141.435 19.3528 141.785 18.5761C142.311 17.4543 142.487 16.4187 142.399 15.3831C142.399 14.9516 142.224 14.6064 141.961 14.3475C141.698 14.0886 141.435 13.916 141.084 14.0023H140.909C140.909 13.8297 140.909 13.6571 140.909 13.4845C140.909 12.7942 140.558 12.1901 139.944 11.7586C139.331 11.3271 138.541 11.1545 137.577 11.2408C136.262 11.2408 134.947 11.8449 133.807 12.7941C132.58 13.7434 131.615 14.9516 130.914 16.505C130.212 17.9721 129.862 19.5254 129.949 20.9925C130.037 22.3733 130.475 23.4952 131.352 24.2718C132.141 25.0485 133.193 25.3937 134.333 25.3074C135.298 25.3074 136.174 24.8759 137.051 24.2718C137.402 24.0129 137.665 23.7541 138.015 23.4089C138.103 23.5815 138.191 23.7541 138.278 23.8404C138.804 24.4444 139.506 24.7896 140.47 24.7033C141.435 24.7033 142.311 24.1855 143.276 23.2362C144.24 22.287 145.205 20.7336 146.257 18.4898C146.344 18.2309 146.432 18.0584 146.432 17.8858C146.432 17.7132 146.432 17.6269 146.257 17.5406C146.169 17.4543 146.081 17.368 145.906 17.4543H145.994ZM137.752 17.972C137.489 19.0939 137.314 20.2158 137.402 21.2514C137.402 21.424 137.402 21.5103 137.402 21.6829C137.226 21.8555 137.139 22.0281 136.963 22.1144C136.613 22.4596 136.174 22.6322 135.648 22.6322C135.034 22.6322 134.508 22.4596 134.07 21.9418C133.632 21.424 133.369 20.7336 133.369 19.7843C133.369 18.6624 133.369 17.5406 133.807 16.505C134.158 15.4694 134.684 14.6064 135.298 14.0023C135.911 13.3982 136.437 13.053 136.963 12.9667C137.314 12.9667 137.489 12.9667 137.665 13.2256C137.84 13.3982 137.928 13.6571 137.928 14.0023C137.928 14.2612 137.928 14.5201 137.752 14.779C137.752 14.9516 137.665 15.0379 137.752 15.2105C137.752 15.2968 137.84 15.4694 138.103 15.4694C138.278 15.4694 138.454 15.5557 138.717 15.5557C138.278 16.2461 137.928 17.0228 137.665 17.972H137.752Z" fill="var(--fill-0, black)"/>
<path d="M155.638 9.4285H155.463C155.463 9.4285 155.375 9.51481 155.287 9.60111C154.937 10.0326 154.41 10.3778 153.797 10.723C153.271 10.9819 152.569 11.2408 151.78 11.4997C152.394 9.68739 152.92 8.04773 153.621 6.75326C153.884 6.23547 154.235 5.63138 154.586 5.11359C154.674 4.94099 154.761 4.76839 154.849 4.59579C154.849 4.42319 154.937 4.3369 154.937 4.2506C154.937 3.81911 154.674 3.38764 154.323 3.12874C153.972 2.86985 153.534 2.69724 153.008 2.69724C152.482 2.69724 151.956 3.04244 151.517 3.56023C151.079 4.16432 150.641 4.85471 150.202 5.80399C149.325 7.78885 148.712 9.86 148.186 12.0175C148.186 12.0175 148.01 12.0175 147.923 12.0175C147.397 12.0175 146.958 12.0175 146.52 11.8449H146.257C146.169 11.8449 146.081 11.8449 146.081 11.9312C146.081 12.0175 146.081 12.1038 146.081 12.1901C146.081 12.7079 146.432 13.1393 147.134 13.4845C147.397 13.6571 147.572 13.6571 147.835 13.7434C147.397 16.0735 147.134 18.0583 147.309 19.8706C147.309 21.2514 147.747 22.287 148.361 22.8911C148.975 23.5815 149.851 23.9267 150.816 23.8404C151.78 23.8404 152.657 23.4952 153.271 22.8911C153.884 22.287 154.41 21.6829 154.761 20.9062C154.761 20.7336 154.849 20.561 154.937 20.3884C155.024 20.2158 154.937 19.9569 154.937 19.8706C154.937 19.5254 154.849 19.4391 154.586 19.4391C154.498 19.4391 154.323 19.5254 154.235 19.7843L154.06 20.0432C153.709 20.4747 153.446 20.8199 153.183 20.9925C152.92 21.1651 152.657 21.3377 152.306 21.3377C151.868 21.3377 151.517 21.1651 151.254 20.8199C150.991 20.4747 150.816 19.7843 150.728 18.9213C150.64 17.368 150.728 15.7283 151.079 14.0886C152.92 13.916 154.323 13.5708 155.2 12.9667C156.164 12.3627 156.602 11.4997 156.602 10.6367C156.602 10.2052 156.427 9.86002 156.252 9.68742C156.076 9.42853 155.901 9.34221 155.638 9.34221V9.4285Z" fill="var(--fill-0, black)"/>
<path d="M165.457 0.108286C165.019 0.108286 164.668 0.194588 164.405 0.367185C164.142 0.539782 163.879 0.884972 163.616 1.40276C163.353 1.92055 163.09 2.61094 162.827 3.64652C162.389 5.1136 162.038 6.58067 161.687 8.22034C161.337 9.77371 161.161 11.3271 160.986 12.6216C160.898 14.0023 160.811 15.0379 160.898 15.7283C160.898 16.2461 161.074 16.6776 161.337 16.9365C161.6 17.1954 161.863 17.368 162.301 17.2817C162.477 17.2817 162.564 17.2817 162.652 17.1091C162.652 17.0228 162.74 16.8502 162.827 16.6776C163.266 14.1749 163.967 11.7586 164.844 9.25593C165.72 6.83958 166.422 4.941 167.036 3.73282L167.562 2.78355C167.649 2.52466 167.825 2.35204 167.912 2.17944C167.912 2.00684 168 1.83425 168 1.74796C168 1.23016 167.737 0.798672 167.211 0.453479C166.685 0.108285 166.159 -0.0643062 165.633 0.0219922L165.457 0.108286Z" fill="var(--fill-0, black)"/>
<path d="M161.512 19.0939C160.723 19.0939 160.109 19.4391 159.496 20.0432C158.97 20.561 158.707 21.2514 158.707 21.9418C158.707 22.4596 158.97 22.8911 159.408 23.2362C159.846 23.5814 160.285 23.754 160.898 23.6677C161.687 23.6677 162.301 23.3225 162.827 22.8048C163.353 22.287 163.616 21.5966 163.529 20.9062C163.529 20.3884 163.266 19.9569 162.915 19.698C162.564 19.3528 162.038 19.1802 161.512 19.2665V19.0939Z" fill="var(--fill-0, black)"/>
</g>
</svg>
