<svg width="63" height="63" viewBox="0 0 63 63" fill="none" xmlns="http://www.w3.org/2000/svg">
<path d="M44.9204 31.4995C44.9204 32.5496 45.7716 33.4009 46.8218 33.4009H51.1462C53.3476 33.4009 55.5224 33.9055 57.4878 34.8972C58.0737 35.1928 58.7468 35.3411 59.4583 35.2936C61.3433 35.1677 62.8715 33.6346 62.9919 31.7492C63.1331 29.5357 61.3801 27.6968 59.197 27.6968C58.6057 27.6968 58.0459 27.8318 57.547 28.0727C55.5443 29.0396 53.3693 29.5982 51.1454 29.5982H46.8218C45.7718 29.5981 44.9204 30.4494 44.9204 31.4995Z" fill="black"/>
<path d="M19.154 43.8444C18.5401 43.2306 17.5448 43.2306 16.9309 43.8444L14.4028 46.3725C13.1159 47.6595 11.5495 48.6358 9.82084 49.2052C9.3054 49.3748 8.82528 49.6816 8.43719 50.1253C7.40878 51.3009 7.41161 53.0906 8.44347 54.2632C9.65485 55.6398 11.7547 55.69 13.031 54.4138C13.3766 54.0682 13.6249 53.662 13.7759 53.2295C14.3814 51.4934 15.3264 49.8954 16.6265 48.5953L19.1541 46.0677C19.7678 45.4536 19.7678 44.4583 19.154 43.8444V43.8444Z" fill="black"/>
<path d="M41.9569 21.043C42.5993 21.6854 43.6408 21.6854 44.2832 21.043L46.9287 18.3977C48.2754 17.0509 49.9145 16.0293 51.7234 15.4335C52.2627 15.2558 52.7652 14.9349 53.1713 14.4705C54.2474 13.2403 54.2445 11.3676 53.1646 10.1406C51.897 8.70006 49.6996 8.64752 48.3641 9.98293C48.0024 10.3447 47.7426 10.7697 47.5847 11.2222C46.951 13.0389 45.9622 14.7111 44.6018 16.0716L41.9568 18.7166C41.3145 19.3591 41.3145 20.4006 41.9569 21.043V21.043Z" fill="black"/>
<path d="M31.4989 44.9197C30.4488 44.9197 29.5975 45.7709 29.5975 46.8211V51.1454C29.5975 53.3468 29.0929 55.5216 28.1012 57.4871C27.8055 58.073 27.6573 58.7461 27.7048 59.4575C27.8307 61.3426 29.3638 62.8708 31.2492 62.9911C33.4627 63.1324 35.3016 61.3793 35.3016 59.1963C35.3016 58.6049 35.1666 58.0452 34.9257 57.5462C33.9588 55.5435 33.4002 53.3686 33.4002 51.1447V46.8211C33.4003 45.771 32.549 44.9197 31.4989 44.9197V44.9197Z" fill="black"/>
<path d="M34.9285 57.5464C33.9616 55.5437 33.4029 53.3687 33.4029 51.1448V46.8211C33.4029 45.771 32.5517 44.9197 31.5015 44.9197C30.4513 44.9197 29.6001 45.7709 29.6001 46.8211V51.1448C29.6001 53.3687 30.1587 55.5436 31.1256 57.5464C31.3665 58.0453 31.5015 58.6051 31.5015 59.1964C31.5015 60.6028 30.7377 61.8298 29.6028 62.4878C30.0951 62.7741 30.6558 62.9533 31.252 62.9913C33.4655 63.1325 35.3044 61.3795 35.3044 59.1964C35.3044 58.6051 35.1694 58.0453 34.9285 57.5464V57.5464Z" fill="black"/>
<path d="M17.3091 23.6468C20.7395 23.6468 23.5203 20.8659 23.5203 17.4356C23.5203 14.0052 20.7395 11.2244 17.3091 11.2244C13.8788 11.2244 11.0979 14.0052 11.0979 17.4356C11.0979 20.8659 13.8788 23.6468 17.3091 23.6468Z" fill="black"/>
<path d="M17.3082 11.2244C16.6448 11.2244 16.0062 11.3294 15.4067 11.522C17.9068 12.3253 19.7165 14.6687 19.7165 17.4356C19.7165 20.2025 17.9068 22.5459 15.4067 23.3491C16.0061 23.5417 16.6447 23.6468 17.3082 23.6468C20.7385 23.6468 23.5194 20.866 23.5194 17.4356C23.5194 14.0052 20.7384 11.2244 17.3082 11.2244V11.2244Z" fill="black"/>
<path d="M31.5002 51.781C42.7014 51.781 51.7817 42.7006 51.7817 31.4995C51.7817 20.2983 42.7014 11.218 31.5002 11.218C20.2991 11.218 11.2188 20.2983 11.2188 31.4995C11.2188 42.7006 20.2991 51.781 31.5002 51.781Z" fill="black"/>
<path d="M31.5015 11.218C30.8602 11.218 30.2263 11.2491 29.6001 11.3075C39.9095 12.2662 47.9803 20.9397 47.9803 31.4995C47.9803 42.0593 39.9096 50.7328 29.6002 51.6915C30.2263 51.7497 30.8603 51.781 31.5016 51.781C42.7029 51.781 51.7831 42.7007 51.7831 31.4995C51.7831 20.2983 42.7027 11.218 31.5015 11.218V11.218Z" fill="black"/>
<path d="M39.1036 28.6864C41.3788 28.6864 43.2233 26.842 43.2233 24.5667C43.2233 22.2915 41.3788 20.447 39.1036 20.447C36.8283 20.447 34.9839 22.2915 34.9839 24.5667C34.9839 26.842 36.8283 28.6864 39.1036 28.6864Z" fill="black"/>
<path d="M39.1065 20.447C38.4204 20.447 37.774 20.6157 37.2051 20.9124C38.523 21.5996 39.4234 22.9776 39.4234 24.5667C39.4234 26.1558 38.523 27.534 37.2051 28.221C37.774 28.5177 38.4204 28.6864 39.1065 28.6864C41.3818 28.6864 43.2262 26.8419 43.2262 24.5667C43.2262 22.2915 41.3818 20.447 39.1065 20.447V20.447Z" fill="black"/>
<path d="M24.2484 42.211C25.7886 42.211 27.0371 40.9624 27.0371 39.4223C27.0371 37.8821 25.7886 36.6335 24.2484 36.6335C22.7083 36.6335 21.4597 37.8821 21.4597 39.4223C21.4597 40.9624 22.7083 42.211 24.2484 42.211Z" fill="black"/>
<path d="M45.2971 50.344C47.3973 50.344 49.0998 48.6414 49.0998 46.5412C49.0998 44.4411 47.3973 42.7385 45.2971 42.7385C43.1969 42.7385 41.4944 44.4411 41.4944 46.5412C41.4944 48.6414 43.1969 50.344 45.2971 50.344Z" fill="black"/>
<path d="M45.2977 42.7385C44.6048 42.7385 43.9557 42.9248 43.3962 43.2485C44.5326 43.9061 45.2977 45.134 45.2977 46.5414C45.2977 47.9488 44.5326 49.1765 43.3962 49.8342C43.9557 50.1579 44.6048 50.3442 45.2977 50.3442C47.3979 50.3442 49.1004 48.6416 49.1004 46.5415C49.1004 44.4414 47.3979 42.7385 45.2977 42.7385V42.7385Z" fill="black"/>
<path d="M18.0794 31.4995C18.0794 32.5496 17.2282 33.4009 16.178 33.4009H11.8537C9.65229 33.4009 7.47746 33.9055 5.51205 34.8972C4.92611 35.1928 4.25305 35.3411 3.5416 35.2936C1.65654 35.1677 0.128316 33.6346 0.00797766 31.7492C-0.133279 29.5357 1.61975 27.6968 3.80283 27.6968C4.39418 27.6968 4.95392 27.8318 5.45287 28.0727C7.45556 29.0396 9.63051 29.5982 11.8544 29.5982H16.1781C17.2281 29.5981 18.0794 30.4494 18.0794 31.4995Z" fill="black"/>
<path d="M31.4988 18.0792C32.5488 18.0792 33.4002 17.228 33.4002 16.1778V11.8535C33.4002 9.65204 33.9048 7.47721 34.8964 5.51181C35.1921 4.92586 35.3404 4.2528 35.2929 3.54136C35.167 1.6563 33.6339 0.128072 31.7484 0.00773352C29.535 -0.133523 27.696 1.61951 27.696 3.80258C27.696 4.39394 27.831 4.95367 28.0719 5.45262C29.0388 7.45531 29.5975 9.63026 29.5975 11.8542V16.1779C29.5973 17.2278 30.4487 18.0792 31.4988 18.0792Z" fill="black"/>
<path d="M35.2938 3.54134C35.168 1.65629 33.6348 0.128062 31.7494 0.00772342C30.9619 -0.0426022 30.2225 0.147872 29.5957 0.511226C30.6605 1.13051 31.4048 2.25232 31.491 3.54134C31.5385 4.25279 31.3902 4.92585 31.0945 5.5118C30.1029 7.4772 29.5983 9.65203 29.5983 11.8534V16.1778C29.5983 17.2278 30.4495 18.0792 31.4997 18.0792C32.5499 18.0792 33.4011 17.2279 33.4011 16.1778V11.8534C33.4011 9.65203 33.9058 7.4772 34.8974 5.5118C35.1931 4.92585 35.3415 4.25279 35.2938 3.54134V3.54134Z" fill="black"/>
<path d="M59.2006 27.699C58.6096 27.699 58.0502 27.8338 57.5515 28.0746C57.4633 28.1172 57.3742 28.1581 57.2854 28.199C58.4964 28.8923 59.2894 30.2326 59.1926 31.749C59.1098 33.0459 58.3604 34.1758 57.2871 34.7955C57.3555 34.8286 57.4243 34.861 57.4922 34.8952C58.0779 35.1906 58.7505 35.3389 59.4616 35.2914C61.3455 35.1655 62.8729 33.6333 62.9931 31.749C63.1344 29.5368 61.3823 27.699 59.2006 27.699V27.699Z" fill="black"/>
</svg>
