<svg width="287" height="297" viewBox="0 0 287 297" fill="none" xmlns="http://www.w3.org/2000/svg">
<g filter="url(#filter0_d_1_655)">
<path d="M272.935 139.427C268.488 139.294 264.656 142.783 263.568 147.578C256.684 148.124 248.819 148.31 240.185 147.754C235.383 147.436 230.817 146.923 226.548 146.288C226.571 145.449 226.583 144.602 226.583 143.754C226.583 139.63 226.287 135.577 225.743 131.611C227.92 129.907 230.64 128.114 233.94 126.578C239.653 123.894 244.999 122.94 249.126 122.666C251.149 127.372 255.797 130.111 260.244 128.918C265.259 127.576 268.133 121.774 266.643 115.955C265.165 110.135 259.913 106.497 254.898 107.839C250.333 109.066 247.542 113.994 248.204 119.266C244.597 121.368 239.227 123.646 232.58 123.813C229.303 123.902 226.429 123.452 224.099 122.87C222.621 116.714 220.504 110.815 217.795 105.252C220.658 102.603 224.04 99.794 228.002 97.0826C233.739 93.1447 239.274 90.3277 244.135 88.3048C247.305 92.103 252.355 93.3658 256.258 91.0527C260.741 88.4019 261.995 82.0173 259.073 76.8068C256.152 71.5977 250.132 69.5309 245.649 72.189C241.758 74.4936 240.291 79.6154 241.9 84.3316C237.725 87.6514 232.592 91.157 226.429 94.2837C222.242 96.4208 218.233 98.0455 214.602 99.2817C211.633 94.1866 208.168 89.4352 204.265 85.0991C205.767 79.5183 208.298 73.0013 212.615 66.4662C216.672 60.356 221.166 55.896 224.986 52.7607C229.197 55.437 234.496 55.0218 237.512 51.498C240.942 47.5067 240.161 41.0516 235.749 37.0786C231.361 33.0958 225.022 33.103 221.604 37.0955C218.588 40.6193 218.824 46.0507 221.959 50.014C219.487 54.2008 215.749 59.3931 210.261 64.3388C204.205 69.7957 198.126 73.0633 193.49 75.0061C188.215 70.8642 182.467 67.3489 176.328 64.5683C177.215 62.0329 178.398 59.4817 179.947 56.9742C181.189 54.9865 182.526 53.238 183.874 51.7105C188.546 53.6618 193.785 52.2581 196.139 48.1696C198.789 43.604 196.849 37.404 191.81 34.3319C186.772 31.2586 180.55 32.4679 177.901 37.0421C175.583 41.0613 176.801 46.3409 180.55 49.6437C179.77 51.7638 178.824 53.9629 177.688 56.2044C176.399 58.7835 175.003 61.1599 173.525 63.3577C172.898 63.1015 172.283 62.8549 171.656 62.6255C164.347 59.8169 156.552 58.0428 148.427 57.4417C147.09 53.7503 145.931 49.6595 145.115 45.1667C143.459 35.999 143.767 28.0201 144.536 22.0277C149.314 21.0879 152.886 17.2387 152.886 12.6257C152.886 7.30967 148.143 3.00018 142.288 3.00018C136.422 3.00018 131.667 7.30967 131.667 12.6257C131.667 17.3176 135.369 21.2203 140.266 22.0727C141.33 27.9789 142.028 36.2455 140.396 45.8285C139.663 50.0469 138.586 53.8913 137.333 57.3714C129.538 57.8219 122.051 59.3651 114.979 61.8519C113.997 60.2467 113.11 58.5613 112.317 56.5736C110.756 52.6369 110.082 48.948 109.81 45.8771C114.387 43.4304 116.741 38.2976 115.132 33.7575C113.358 28.7644 107.456 26.3882 101.945 28.4524C96.4448 30.5167 93.417 36.237 95.203 41.2313C96.7405 45.5395 101.341 47.8915 106.108 47.1302C107.504 50.0699 108.84 53.4589 109.881 57.3094C110.449 59.3481 110.863 61.342 111.182 63.2921C104.76 65.904 98.7395 69.31 93.2042 73.3863C90.2946 71.2237 87.314 68.7138 84.369 65.7728C77.5918 59.0009 73.0736 52.0552 70.1049 46.4927C73.393 42.7576 73.9726 37.41 71.2167 33.7259C68.0588 29.51 61.7311 29.0655 57.0828 32.7314C52.4465 36.3985 51.2401 42.7868 54.3862 47.0015C57.1893 50.7257 62.4407 51.5004 66.8406 49.101C71.1221 53.0437 76.6929 59.2619 80.9981 68.2013C82.9733 72.2898 84.3453 76.2653 85.3152 79.9725C84.4281 80.8103 83.5292 81.6748 82.6658 82.5563C78.3487 87.0042 74.4811 91.9293 71.1694 97.2587C69.2179 96.6819 67.1954 95.9837 65.1256 95.1289C58.3957 92.347 53.1798 88.8002 49.3949 85.7099C51.0035 80.9038 49.4304 75.7188 45.4327 73.47C40.9028 70.914 34.9417 73.1191 32.1268 78.3951C29.3 83.6687 30.6957 90.0169 35.2493 92.5717C39.2352 94.8181 44.321 93.3828 47.4079 89.4194C51.997 91.049 57.7215 93.6633 63.6234 97.9557C65.3857 99.238 66.9943 100.557 68.4964 101.883C63.8245 110.526 60.5601 120.078 59.0107 130.22C54.9775 130.573 50.6251 130.743 45.9532 130.595C39.2825 130.385 33.2622 129.582 27.9989 128.538C27.8806 123.234 24.427 118.795 19.7433 118.29C14.5865 117.734 9.91466 122.134 9.29963 128.117C8.69642 134.099 12.3748 139.399 17.5198 139.952C22.1088 140.447 26.2958 137.013 27.6086 132.035C33.002 132.147 39.0576 132.642 45.6219 133.802C50.1755 134.605 54.3743 135.628 58.2656 136.766C58.0764 139.07 57.9936 141.398 57.9936 143.754C57.9936 149.348 58.5022 154.819 59.4957 160.122C55.0249 163.157 48.8745 166.598 41.0329 169.015C34.1611 171.133 27.9753 171.855 23.0432 172.01C21.2691 167.294 16.8692 164.352 12.4102 165.234C7.33623 166.242 4.10734 171.846 5.21913 177.752C6.33092 183.66 11.3576 187.63 16.4316 186.623C20.8314 185.751 23.8239 181.444 23.8357 176.477C28.8861 174.792 34.8471 173.21 41.6242 172.18C49.4068 170.997 56.3968 170.827 62.287 171.09C64.6406 178.409 67.9524 185.284 72.0329 191.578C70.105 193.143 67.9642 194.688 65.5395 196.131C60.915 198.898 56.4796 200.618 52.6238 201.73C50.0218 197.457 45.1489 195.451 40.9383 197.198C36.1481 199.194 34.031 205.331 36.2309 210.903C37.6148 214.4 40.3705 216.855 43.422 217.694C45.2198 218.197 47.1241 218.136 48.9101 217.394C49.4305 217.173 49.939 216.899 50.4003 216.572C53.9012 214.19 55.3915 209.25 53.9131 204.538C57.556 202.608 61.8139 200.697 66.7105 199.121C69.8685 198.111 72.8726 197.372 75.6994 196.824C78.2778 200.248 81.1164 203.461 84.1561 206.426C84.44 206.709 84.7356 206.992 85.0195 207.255C82.9615 211.972 79.8626 217.703 75.1908 223.513C70.6135 229.201 65.8589 233.341 61.8493 236.267C57.8398 233.341 52.5765 233.405 49.3476 236.681C45.6574 240.416 46.0123 246.916 50.1401 251.198C54.2442 255.471 60.5838 255.915 64.2622 252.178C67.4674 248.936 67.6211 243.604 64.9008 239.463C68.0469 235.249 72.1511 230.499 77.3907 225.809C83.0325 220.776 88.5914 217.05 93.4407 214.303C99.8512 218.983 106.936 222.771 114.494 225.483C114.198 228.405 113.689 231.558 112.85 234.87C111.028 242.085 108.308 247.869 105.836 252.126C100.975 251.127 96.1728 253.406 94.5288 257.769C92.6718 262.723 95.5933 268.498 101.058 270.67C106.51 272.843 112.448 270.582 114.328 265.619C115.948 261.31 113.961 256.382 109.81 253.75C110.981 248.619 112.838 242.552 115.771 236.035C117.214 232.857 118.74 229.96 120.301 227.32C126.132 228.936 132.199 229.926 138.468 230.199C139.485 235.233 140.313 240.866 140.715 247.021C141.318 256.178 140.834 264.286 139.982 270.979C135.227 271.925 131.667 275.774 131.667 280.376C131.667 285.692 136.41 290 142.288 290C148.143 290 152.886 285.692 152.886 280.376C152.886 275.792 149.349 271.95 144.618 270.987C143.826 264.144 143.4 256.055 143.85 247.021C144.157 240.927 144.831 235.302 145.683 230.216C152.235 229.96 158.587 228.928 164.654 227.204C165.175 228.122 165.683 229.077 166.18 230.058C169.48 236.53 171.254 242.598 172.212 247.454C167.99 249.971 165.837 254.863 167.363 259.226C169.09 264.232 174.98 266.652 180.503 264.638C186.015 262.616 189.09 256.92 187.351 251.914C185.814 247.472 181 245.069 176.08 245.988C173.821 242.005 171.195 235.991 170.284 228.291C170.166 227.337 170.083 226.402 170.036 225.483C176.789 223.081 183.153 219.805 189.007 215.795C192.78 218.947 196.754 222.709 200.705 227.178C206.784 234.048 211.207 240.822 214.401 246.579C211.16 250.306 210.604 255.613 213.336 259.278C216.506 263.49 222.822 263.932 227.47 260.267C232.107 256.603 233.313 250.218 230.167 245.998C227.435 242.359 222.337 241.528 218.008 243.745C213.348 238.897 208.18 232.76 203.2 225.218C199.983 220.343 197.322 215.611 195.134 211.168C197.487 209.216 199.735 207.141 201.887 204.942C205.388 201.339 208.594 197.427 211.432 193.242C216.672 194.744 222.716 196.943 229.126 200.244C235.312 203.416 240.469 206.903 244.62 210.153C243.047 214.869 244.537 219.972 248.441 222.25C252.935 224.891 258.932 222.789 261.841 217.571C264.751 212.343 263.45 205.975 258.955 203.334C255.028 201.031 249.931 202.347 246.785 206.215C242.148 204.403 236.518 201.658 230.687 197.445C224.632 193.074 220.054 188.384 216.743 184.34C218.978 180.032 220.87 175.501 222.384 170.785C224.892 170.874 227.553 171.103 230.297 171.527C237.382 172.622 243.284 174.679 247.825 176.728C247.435 181.762 250.203 186.371 254.591 187.528C259.606 188.853 264.857 185.205 266.324 179.378C267.778 173.55 264.904 167.757 259.878 166.432C255.478 165.265 250.877 167.951 248.831 172.586C244.017 172.18 237.831 171.093 231.078 168.41C228.523 167.385 226.157 166.246 224.005 165.054C225.081 160.683 225.838 156.187 226.228 151.578C230.593 151.216 235.229 150.986 240.114 150.977C248.724 150.951 256.554 151.586 263.426 152.522C264.254 157.371 267.885 161.062 272.32 161.204C277.501 161.354 281.841 156.602 281.995 150.589C282.161 144.576 278.104 139.577 272.935 139.427Z" fill="#128E5A" fill-opacity="0.74"/>
</g>
<defs>
<filter id="filter0_d_1_655" x="0" y="0.000183105" width="287" height="297" filterUnits="userSpaceOnUse" color-interpolation-filters="sRGB">
<feFlood flood-opacity="0" result="BackgroundImageFix"/>
<feColorMatrix in="SourceAlpha" type="matrix" values="0 0 0 0 0 0 0 0 0 0 0 0 0 0 0 0 0 0 127 0" result="hardAlpha"/>
<feOffset dy="2"/>
<feGaussianBlur stdDeviation="2.5"/>
<feColorMatrix type="matrix" values="0 0 0 0 0 0 0 0 0 0 0 0 0 0 0 0 0 0 0.1 0"/>
<feBlend mode="normal" in2="BackgroundImageFix" result="effect1_dropShadow_1_655"/>
<feBlend mode="normal" in="SourceGraphic" in2="effect1_dropShadow_1_655" result="shape"/>
</filter>
</defs>
</svg>
